<?xml version="1.0" encoding="utf-8" standalone="no"?>
<!DOCTYPE svg PUBLIC "-//W3C//DTD SVG 1.1//EN"
  "http://www.w3.org/Graphics/SVG/1.1/DTD/svg11.dtd">
<svg xmlns:xlink="http://www.w3.org/1999/xlink" width="1203.522162pt" height="690.603188pt" viewBox="0 0 1203.522162 690.603188" xmlns="http://www.w3.org/2000/svg" version="1.1">
 <metadata>
  <rdf:RDF xmlns:dc="http://purl.org/dc/elements/1.1/" xmlns:cc="http://creativecommons.org/ns#" xmlns:rdf="http://www.w3.org/1999/02/22-rdf-syntax-ns#">
   <cc:Work>
    <dc:type rdf:resource="http://purl.org/dc/dcmitype/StillImage"/>
    <dc:date>2026-03-28T20:46:32.727710</dc:date>
    <dc:format>image/svg+xml</dc:format>
    <dc:creator>
     <cc:Agent>
      <dc:title>Matplotlib v3.10.0, https://matplotlib.org/</dc:title>
     </cc:Agent>
    </dc:creator>
   </cc:Work>
  </rdf:RDF>
 </metadata>
 <defs>
  <style type="text/css">*{stroke-linejoin: round; stroke-linecap: butt}</style>
 </defs>
 <g id="figure_1">
  <g id="patch_1">
   <path d="M 0 690.603188 
L 1203.522162 690.603188 
L 1203.522162 0 
L 0 0 
z
" style="fill: #ffffff"/>
  </g>
  <g id="axes_1">
   <g id="patch_2">
    <path d="M 81.97125 611.997875 
L 911.41125 611.997875 
L 911.41125 21.021875 
L 81.97125 21.021875 
z
" style="fill: #ffffff"/>
   </g>
   <g id="matplotlib.axis_1">
    <g id="xtick_1">
     <g id="line2d_1">
      <path d="M 163.175166 611.997875 
L 163.175166 21.021875 
" clip-path="url(#p218c0c3f61)" style="fill: none; stroke: #f2f5f8; stroke-width: 0.9; stroke-linecap: square"/>
     </g>
     <g id="line2d_2">
      <defs>
       <path id="m60a30f6729" d="M 0 0 
L 0 6 
" style="stroke: #6a737d; stroke-width: 2.4"/>
      </defs>
      <g>
       <use xlink:href="#m60a30f6729" x="163.175166" y="611.997875" style="fill: #6a737d; stroke: #6a737d; stroke-width: 2.4"/>
      </g>
     </g>
     <g id="text_1">
      <!-- 4 -->
      <g style="fill: #6a737d" transform="translate(157.675166 636.066) scale(0.22 -0.22)">
       <defs>
        <path id="TimesNewRomanPS-BoldMT-34" d="M 159 1597 
L 2172 4325 
L 2553 4325 
L 2553 1597 
L 2941 1597 
L 2941 950 
L 2553 950 
L 2553 0 
L 1694 0 
L 1694 950 
L 159 950 
L 159 1597 
z
M 463 1597 
L 1694 1597 
L 1694 3269 
L 463 1597 
z
" transform="scale(0.015625)"/>
       </defs>
       <use xlink:href="#TimesNewRomanPS-BoldMT-34"/>
      </g>
     </g>
    </g>
    <g id="xtick_2">
     <g id="line2d_3">
      <path d="M 337.183558 611.997875 
L 337.183558 21.021875 
" clip-path="url(#p218c0c3f61)" style="fill: none; stroke: #f2f5f8; stroke-width: 0.9; stroke-linecap: square"/>
     </g>
     <g id="line2d_4">
      <g>
       <use xlink:href="#m60a30f6729" x="337.183558" y="611.997875" style="fill: #6a737d; stroke: #6a737d; stroke-width: 2.4"/>
      </g>
     </g>
     <g id="text_2">
      <!-- 7 -->
      <g style="fill: #6a737d" transform="translate(331.683558 636.066) scale(0.22 -0.22)">
       <defs>
        <path id="TimesNewRomanPS-BoldMT-37" d="M 1134 -88 
L 2288 3409 
L 1409 3409 
Q 894 3409 634 3275 
Q 453 3181 334 2922 
L 216 2922 
L 522 4238 
L 3047 4238 
L 1625 -88 
L 1134 -88 
z
" transform="scale(0.015625)"/>
       </defs>
       <use xlink:href="#TimesNewRomanPS-BoldMT-37"/>
      </g>
     </g>
    </g>
    <g id="xtick_3">
     <g id="line2d_5">
      <path d="M 569.194747 611.997875 
L 569.194747 21.021875 
" clip-path="url(#p218c0c3f61)" style="fill: none; stroke: #f2f5f8; stroke-width: 0.9; stroke-linecap: square"/>
     </g>
     <g id="line2d_6">
      <g>
       <use xlink:href="#m60a30f6729" x="569.194747" y="611.997875" style="fill: #6a737d; stroke: #6a737d; stroke-width: 2.4"/>
      </g>
     </g>
     <g id="text_3">
      <!-- 11 -->
      <g style="fill: #6a737d" transform="translate(558.799747 636.066) scale(0.22 -0.22)">
       <defs>
        <path id="TimesNewRomanPS-BoldMT-31" d="M 2084 4325 
L 2084 859 
Q 2084 469 2118 361 
Q 2153 253 2262 184 
Q 2372 116 2613 116 
L 2709 116 
L 2709 0 
L 478 0 
L 478 116 
L 591 116 
Q 863 116 978 178 
Q 1094 241 1134 350 
Q 1175 459 1175 859 
L 1175 3056 
Q 1175 3350 1147 3423 
Q 1119 3497 1042 3548 
Q 966 3600 866 3600 
Q 706 3600 478 3500 
L 422 3613 
L 1981 4325 
L 2084 4325 
z
" transform="scale(0.015625)"/>
       </defs>
       <use xlink:href="#TimesNewRomanPS-BoldMT-31"/>
       <use xlink:href="#TimesNewRomanPS-BoldMT-31" transform="translate(44.5 0)"/>
      </g>
     </g>
    </g>
    <g id="xtick_4">
     <g id="line2d_7">
      <path d="M 801.205935 611.997875 
L 801.205935 21.021875 
" clip-path="url(#p218c0c3f61)" style="fill: none; stroke: #f2f5f8; stroke-width: 0.9; stroke-linecap: square"/>
     </g>
     <g id="line2d_8">
      <g>
       <use xlink:href="#m60a30f6729" x="801.205935" y="611.997875" style="fill: #6a737d; stroke: #6a737d; stroke-width: 2.4"/>
      </g>
     </g>
     <g id="text_4">
      <!-- 15 -->
      <g style="fill: #6a737d" transform="translate(790.205935 636.066) scale(0.22 -0.22)">
       <defs>
        <path id="TimesNewRomanPS-BoldMT-35" d="M 975 4238 
L 2959 4238 
L 2644 3431 
L 975 3431 
L 816 3009 
Q 1894 2969 2475 2472 
Q 2953 2063 2953 1453 
Q 2953 1063 2731 689 
Q 2509 316 2106 114 
Q 1703 -88 1222 -88 
Q 703 -88 425 106 
Q 231 244 231 419 
Q 231 553 332 656 
Q 434 759 569 759 
Q 691 759 816 709 
Q 941 659 1244 447 
Q 1434 316 1572 266 
Q 1669 228 1791 228 
Q 2047 228 2226 415 
Q 2406 603 2406 866 
Q 2406 1416 1856 1759 
Q 1306 2103 469 2103 
Q 384 2103 216 2100 
L 975 4238 
z
" transform="scale(0.015625)"/>
       </defs>
       <use xlink:href="#TimesNewRomanPS-BoldMT-31"/>
       <use xlink:href="#TimesNewRomanPS-BoldMT-35" transform="translate(50 0)"/>
      </g>
     </g>
    </g>
    <g id="xtick_5">
     <g id="line2d_9">
      <path d="M 105.172369 611.997875 
L 105.172369 21.021875 
" clip-path="url(#p218c0c3f61)" style="fill: none; stroke: #f2f5f8; stroke-width: 0.7; stroke-linecap: square"/>
     </g>
     <g id="line2d_10">
      <defs>
       <path id="mb67d5bdb94" d="M 0 0 
L 0 3 
" style="stroke: #6a737d; stroke-width: 1.2"/>
      </defs>
      <g>
       <use xlink:href="#mb67d5bdb94" x="105.172369" y="611.997875" style="fill: #6a737d; stroke: #6a737d; stroke-width: 1.2"/>
      </g>
     </g>
    </g>
    <g id="xtick_6">
     <g id="line2d_11">
      <path d="M 221.177963 611.997875 
L 221.177963 21.021875 
" clip-path="url(#p218c0c3f61)" style="fill: none; stroke: #f2f5f8; stroke-width: 0.7; stroke-linecap: square"/>
     </g>
     <g id="line2d_12">
      <g>
       <use xlink:href="#mb67d5bdb94" x="221.177963" y="611.997875" style="fill: #6a737d; stroke: #6a737d; stroke-width: 1.2"/>
      </g>
     </g>
    </g>
    <g id="xtick_7">
     <g id="line2d_13">
      <path d="M 279.18076 611.997875 
L 279.18076 21.021875 
" clip-path="url(#p218c0c3f61)" style="fill: none; stroke: #f2f5f8; stroke-width: 0.7; stroke-linecap: square"/>
     </g>
     <g id="line2d_14">
      <g>
       <use xlink:href="#mb67d5bdb94" x="279.18076" y="611.997875" style="fill: #6a737d; stroke: #6a737d; stroke-width: 1.2"/>
      </g>
     </g>
    </g>
    <g id="xtick_8">
     <g id="line2d_15">
      <path d="M 395.186355 611.997875 
L 395.186355 21.021875 
" clip-path="url(#p218c0c3f61)" style="fill: none; stroke: #f2f5f8; stroke-width: 0.7; stroke-linecap: square"/>
     </g>
     <g id="line2d_16">
      <g>
       <use xlink:href="#mb67d5bdb94" x="395.186355" y="611.997875" style="fill: #6a737d; stroke: #6a737d; stroke-width: 1.2"/>
      </g>
     </g>
    </g>
    <g id="xtick_9">
     <g id="line2d_17">
      <path d="M 453.189152 611.997875 
L 453.189152 21.021875 
" clip-path="url(#p218c0c3f61)" style="fill: none; stroke: #f2f5f8; stroke-width: 0.7; stroke-linecap: square"/>
     </g>
     <g id="line2d_18">
      <g>
       <use xlink:href="#mb67d5bdb94" x="453.189152" y="611.997875" style="fill: #6a737d; stroke: #6a737d; stroke-width: 1.2"/>
      </g>
     </g>
    </g>
    <g id="xtick_10">
     <g id="line2d_19">
      <path d="M 511.191949 611.997875 
L 511.191949 21.021875 
" clip-path="url(#p218c0c3f61)" style="fill: none; stroke: #f2f5f8; stroke-width: 0.7; stroke-linecap: square"/>
     </g>
     <g id="line2d_20">
      <g>
       <use xlink:href="#mb67d5bdb94" x="511.191949" y="611.997875" style="fill: #6a737d; stroke: #6a737d; stroke-width: 1.2"/>
      </g>
     </g>
    </g>
    <g id="xtick_11">
     <g id="line2d_21">
      <path d="M 627.197544 611.997875 
L 627.197544 21.021875 
" clip-path="url(#p218c0c3f61)" style="fill: none; stroke: #f2f5f8; stroke-width: 0.7; stroke-linecap: square"/>
     </g>
     <g id="line2d_22">
      <g>
       <use xlink:href="#mb67d5bdb94" x="627.197544" y="611.997875" style="fill: #6a737d; stroke: #6a737d; stroke-width: 1.2"/>
      </g>
     </g>
    </g>
    <g id="xtick_12">
     <g id="line2d_23">
      <path d="M 685.200341 611.997875 
L 685.200341 21.021875 
" clip-path="url(#p218c0c3f61)" style="fill: none; stroke: #f2f5f8; stroke-width: 0.7; stroke-linecap: square"/>
     </g>
     <g id="line2d_24">
      <g>
       <use xlink:href="#mb67d5bdb94" x="685.200341" y="611.997875" style="fill: #6a737d; stroke: #6a737d; stroke-width: 1.2"/>
      </g>
     </g>
    </g>
    <g id="xtick_13">
     <g id="line2d_25">
      <path d="M 743.203138 611.997875 
L 743.203138 21.021875 
" clip-path="url(#p218c0c3f61)" style="fill: none; stroke: #f2f5f8; stroke-width: 0.7; stroke-linecap: square"/>
     </g>
     <g id="line2d_26">
      <g>
       <use xlink:href="#mb67d5bdb94" x="743.203138" y="611.997875" style="fill: #6a737d; stroke: #6a737d; stroke-width: 1.2"/>
      </g>
     </g>
    </g>
    <g id="xtick_14">
     <g id="line2d_27">
      <path d="M 859.208733 611.997875 
L 859.208733 21.021875 
" clip-path="url(#p218c0c3f61)" style="fill: none; stroke: #f2f5f8; stroke-width: 0.7; stroke-linecap: square"/>
     </g>
     <g id="line2d_28">
      <g>
       <use xlink:href="#mb67d5bdb94" x="859.208733" y="611.997875" style="fill: #6a737d; stroke: #6a737d; stroke-width: 1.2"/>
      </g>
     </g>
    </g>
    <g id="text_5">
     <!-- ID-Context Cache Length -->
     <g style="fill: #1a1e23" transform="translate(364.035 671.024438) scale(0.24 -0.24)">
      <defs>
       <path id="TimesNewRomanPS-BoldMT-49" d="M 2344 116 
L 2344 0 
L 128 0 
L 128 116 
L 269 116 
Q 453 116 566 181 
Q 647 225 691 331 
Q 725 406 725 725 
L 725 3513 
Q 725 3838 690 3919 
Q 656 4000 551 4061 
Q 447 4122 269 4122 
L 128 4122 
L 128 4238 
L 2344 4238 
L 2344 4122 
L 2203 4122 
Q 2019 4122 1906 4056 
Q 1825 4013 1778 3906 
Q 1744 3831 1744 3513 
L 1744 725 
Q 1744 400 1780 319 
Q 1816 238 1920 177 
Q 2025 116 2203 116 
L 2344 116 
z
" transform="scale(0.015625)"/>
       <path id="TimesNewRomanPS-BoldMT-44" d="M 84 0 
L 84 116 
L 225 116 
Q 409 116 507 173 
Q 606 231 653 331 
Q 681 397 681 725 
L 681 3513 
Q 681 3838 647 3919 
Q 613 4000 508 4061 
Q 403 4122 225 4122 
L 84 4122 
L 84 4238 
L 1981 4238 
Q 2741 4238 3203 4031 
Q 3769 3778 4061 3265 
Q 4353 2753 4353 2106 
Q 4353 1659 4209 1282 
Q 4066 906 3837 661 
Q 3609 416 3311 267 
Q 3013 119 2581 38 
Q 2391 0 1981 0 
L 84 0 
z
M 1700 3997 
L 1700 691 
Q 1700 428 1725 368 
Q 1750 309 1809 278 
Q 1894 231 2053 231 
Q 2575 231 2850 588 
Q 3225 1069 3225 2081 
Q 3225 2897 2969 3384 
Q 2766 3766 2447 3903 
Q 2222 4000 1700 3997 
z
" transform="scale(0.015625)"/>
       <path id="TimesNewRomanPS-BoldMT-2d" d="M 1978 1147 
L 156 1147 
L 156 1794 
L 1978 1794 
L 1978 1147 
z
" transform="scale(0.015625)"/>
       <path id="TimesNewRomanPS-BoldMT-43" d="M 4272 4334 
L 4272 2866 
L 4150 2866 
Q 4013 3441 3638 3747 
Q 3263 4053 2788 4053 
Q 2391 4053 2059 3825 
Q 1728 3597 1575 3228 
Q 1378 2756 1378 2178 
Q 1378 1609 1522 1142 
Q 1666 675 1972 436 
Q 2278 197 2766 197 
Q 3166 197 3498 372 
Q 3831 547 4200 975 
L 4200 609 
Q 3844 238 3458 70 
Q 3072 -97 2556 -97 
Q 1878 -97 1351 175 
Q 825 447 539 956 
Q 253 1466 253 2041 
Q 253 2647 570 3190 
Q 888 3734 1427 4034 
Q 1966 4334 2572 4334 
Q 3019 4334 3516 4141 
Q 3803 4028 3881 4028 
Q 3981 4028 4054 4101 
Q 4128 4175 4150 4334 
L 4272 4334 
z
" transform="scale(0.015625)"/>
       <path id="TimesNewRomanPS-BoldMT-6f" d="M 1594 3009 
Q 1975 3009 2303 2812 
Q 2631 2616 2801 2253 
Q 2972 1891 2972 1459 
Q 2972 838 2656 419 
Q 2275 -88 1603 -88 
Q 944 -88 587 375 
Q 231 838 231 1447 
Q 231 2075 595 2542 
Q 959 3009 1594 3009 
z
M 1606 2788 
Q 1447 2788 1333 2667 
Q 1219 2547 1183 2192 
Q 1147 1838 1147 1206 
Q 1147 872 1191 581 
Q 1225 359 1337 243 
Q 1450 128 1594 128 
Q 1734 128 1828 206 
Q 1950 313 1991 503 
Q 2053 800 2053 1703 
Q 2053 2234 1993 2432 
Q 1934 2631 1819 2722 
Q 1738 2788 1606 2788 
z
" transform="scale(0.015625)"/>
       <path id="TimesNewRomanPS-BoldMT-6e" d="M 1409 2922 
L 1409 2544 
Q 1634 2788 1840 2898 
Q 2047 3009 2284 3009 
Q 2569 3009 2756 2851 
Q 2944 2694 3006 2459 
Q 3056 2281 3056 1775 
L 3056 638 
Q 3056 300 3117 217 
Q 3178 134 3372 113 
L 3372 0 
L 1894 0 
L 1894 113 
Q 2059 134 2131 250 
Q 2181 328 2181 638 
L 2181 1938 
Q 2181 2297 2153 2390 
Q 2125 2484 2058 2536 
Q 1991 2588 1909 2588 
Q 1641 2588 1409 2203 
L 1409 638 
Q 1409 309 1470 221 
Q 1531 134 1697 113 
L 1697 0 
L 219 0 
L 219 113 
Q 403 131 481 231 
Q 534 300 534 638 
L 534 2288 
Q 534 2619 473 2700 
Q 413 2781 219 2806 
L 219 2922 
L 1409 2922 
z
" transform="scale(0.015625)"/>
       <path id="TimesNewRomanPS-BoldMT-74" d="M 1375 3991 
L 1375 2922 
L 2069 2922 
L 2069 2613 
L 1375 2613 
L 1375 809 
Q 1375 556 1398 482 
Q 1422 409 1481 364 
Q 1541 319 1591 319 
Q 1794 319 1975 628 
L 2069 559 
Q 1816 -41 1247 -41 
Q 969 -41 776 114 
Q 584 269 531 459 
Q 500 566 500 1034 
L 500 2613 
L 119 2613 
L 119 2722 
Q 513 3000 789 3306 
Q 1066 3613 1272 3991 
L 1375 3991 
z
" transform="scale(0.015625)"/>
       <path id="TimesNewRomanPS-BoldMT-65" d="M 2691 1566 
L 1088 1566 
Q 1116 984 1397 647 
Q 1613 388 1916 388 
Q 2103 388 2256 492 
Q 2409 597 2584 869 
L 2691 800 
Q 2453 316 2165 114 
Q 1878 -88 1500 -88 
Q 850 -88 516 413 
Q 247 816 247 1413 
Q 247 2144 642 2576 
Q 1038 3009 1569 3009 
Q 2013 3009 2339 2645 
Q 2666 2281 2691 1566 
z
M 1922 1775 
Q 1922 2278 1867 2465 
Q 1813 2653 1697 2750 
Q 1631 2806 1522 2806 
Q 1359 2806 1256 2647 
Q 1072 2369 1072 1884 
L 1072 1775 
L 1922 1775 
z
" transform="scale(0.015625)"/>
       <path id="TimesNewRomanPS-BoldMT-78" d="M 1944 1791 
L 2450 828 
Q 2713 325 2866 191 
Q 2950 119 3097 113 
L 3097 0 
L 1469 0 
L 1469 113 
Q 1659 128 1704 162 
Q 1750 197 1750 256 
Q 1750 344 1650 531 
L 1397 1006 
L 1181 691 
Q 1034 475 1016 434 
Q 991 375 991 328 
Q 991 256 1020 207 
Q 1050 159 1101 136 
Q 1153 113 1291 113 
L 1291 0 
L 147 0 
L 147 113 
Q 359 113 536 230 
Q 713 347 1050 844 
L 1291 1200 
L 788 2131 
Q 541 2588 419 2691 
Q 297 2794 147 2806 
L 147 2922 
L 1766 2922 
L 1766 2806 
L 1681 2803 
L 1519 2747 
Q 1494 2725 1494 2675 
Q 1494 2628 1509 2578 
Q 1519 2556 1597 2409 
L 1825 1984 
L 1944 2153 
Q 2194 2497 2194 2634 
Q 2194 2700 2139 2745 
Q 2084 2791 1944 2806 
L 1944 2922 
L 2978 2922 
L 2978 2806 
Q 2788 2800 2622 2689 
Q 2456 2578 2250 2259 
L 1944 1791 
z
" transform="scale(0.015625)"/>
       <path id="TimesNewRomanPS-BoldMT-20" transform="scale(0.015625)"/>
       <path id="TimesNewRomanPS-BoldMT-61" d="M 1828 431 
Q 1294 -41 869 -41 
Q 619 -41 453 123 
Q 288 288 288 534 
Q 288 869 575 1136 
Q 863 1403 1828 1847 
L 1828 2141 
Q 1828 2472 1792 2558 
Q 1756 2644 1656 2708 
Q 1556 2772 1431 2772 
Q 1228 2772 1097 2681 
Q 1016 2625 1016 2550 
Q 1016 2484 1103 2388 
Q 1222 2253 1222 2128 
Q 1222 1975 1108 1867 
Q 994 1759 809 1759 
Q 613 1759 480 1878 
Q 347 1997 347 2156 
Q 347 2381 525 2586 
Q 703 2791 1022 2900 
Q 1341 3009 1684 3009 
Q 2100 3009 2342 2832 
Q 2584 2656 2656 2450 
Q 2700 2319 2700 1847 
L 2700 713 
Q 2700 513 2715 461 
Q 2731 409 2762 384 
Q 2794 359 2834 359 
Q 2916 359 3000 475 
L 3094 400 
Q 2938 169 2770 64 
Q 2603 -41 2391 -41 
Q 2141 -41 2000 76 
Q 1859 194 1828 431 
z
M 1828 659 
L 1828 1638 
Q 1450 1416 1266 1163 
Q 1144 994 1144 822 
Q 1144 678 1247 569 
Q 1325 484 1466 484 
Q 1622 484 1828 659 
z
" transform="scale(0.015625)"/>
       <path id="TimesNewRomanPS-BoldMT-63" d="M 2600 753 
L 2697 678 
Q 2491 291 2183 101 
Q 1875 -88 1528 -88 
Q 944 -88 594 353 
Q 244 794 244 1413 
Q 244 2009 563 2463 
Q 947 3009 1622 3009 
Q 2075 3009 2342 2781 
Q 2609 2553 2609 2272 
Q 2609 2094 2501 1987 
Q 2394 1881 2219 1881 
Q 2034 1881 1914 2003 
Q 1794 2125 1766 2438 
Q 1747 2634 1675 2713 
Q 1603 2791 1506 2791 
Q 1356 2791 1250 2631 
Q 1088 2391 1088 1894 
Q 1088 1481 1219 1104 
Q 1350 728 1578 544 
Q 1750 409 1984 409 
Q 2138 409 2275 481 
Q 2413 553 2600 753 
z
" transform="scale(0.015625)"/>
       <path id="TimesNewRomanPS-BoldMT-68" d="M 1409 4238 
L 1409 2547 
Q 1650 2800 1850 2904 
Q 2050 3009 2266 3009 
Q 2541 3009 2736 2853 
Q 2931 2697 2995 2486 
Q 3059 2275 3059 1775 
L 3059 634 
Q 3059 300 3121 217 
Q 3184 134 3375 113 
L 3375 0 
L 1894 0 
L 1894 113 
Q 2050 134 2128 238 
Q 2184 319 2184 634 
L 2184 1938 
Q 2184 2300 2156 2392 
Q 2128 2484 2061 2536 
Q 1994 2588 1909 2588 
Q 1784 2588 1665 2502 
Q 1547 2416 1409 2200 
L 1409 634 
Q 1409 322 1456 244 
Q 1516 138 1700 113 
L 1700 0 
L 219 0 
L 219 113 
Q 403 131 481 231 
Q 534 300 534 634 
L 534 3603 
Q 534 3934 473 4015 
Q 413 4097 219 4122 
L 219 4238 
L 1409 4238 
z
" transform="scale(0.015625)"/>
       <path id="TimesNewRomanPS-BoldMT-4c" d="M 4041 1488 
L 3881 0 
L 119 0 
L 119 116 
L 259 116 
Q 444 116 556 181 
Q 638 225 681 331 
Q 716 406 716 725 
L 716 3513 
Q 716 3838 681 3919 
Q 647 4000 542 4061 
Q 438 4122 259 4122 
L 119 4122 
L 119 4238 
L 2378 4238 
L 2378 4122 
L 2194 4122 
Q 2009 4122 1897 4056 
Q 1816 4013 1769 3906 
Q 1734 3831 1734 3513 
L 1734 813 
Q 1734 488 1771 398 
Q 1809 309 1919 266 
Q 1997 238 2297 238 
L 2650 238 
Q 2988 238 3213 356 
Q 3438 475 3602 731 
Q 3766 988 3913 1488 
L 4041 1488 
z
" transform="scale(0.015625)"/>
       <path id="TimesNewRomanPS-BoldMT-67" d="M 2091 2888 
L 3075 2888 
L 3075 2544 
L 2516 2544 
Q 2669 2391 2728 2266 
Q 2803 2097 2803 1913 
Q 2803 1600 2629 1370 
Q 2456 1141 2157 1011 
Q 1859 881 1628 881 
Q 1609 881 1253 897 
Q 1113 897 1017 805 
Q 922 713 922 584 
Q 922 472 1008 400 
Q 1094 328 1288 328 
L 1828 334 
Q 2484 334 2731 191 
Q 3084 -9 3084 -425 
Q 3084 -691 2921 -908 
Q 2759 -1125 2494 -1228 
Q 2091 -1381 1566 -1381 
Q 1172 -1381 847 -1304 
Q 522 -1228 381 -1092 
Q 241 -956 241 -806 
Q 241 -663 348 -548 
Q 456 -434 750 -356 
Q 344 -156 344 200 
Q 344 416 509 619 
Q 675 822 1034 972 
Q 616 1125 428 1375 
Q 241 1625 241 1953 
Q 241 2381 591 2695 
Q 941 3009 1491 3009 
Q 1781 3009 2091 2888 
z
M 1550 2816 
Q 1369 2816 1244 2633 
Q 1119 2450 1119 1875 
Q 1119 1409 1242 1236 
Q 1366 1063 1534 1063 
Q 1722 1063 1847 1234 
Q 1972 1406 1972 1903 
Q 1972 2463 1831 2666 
Q 1731 2816 1550 2816 
z
M 1366 -431 
Q 1047 -431 944 -484 
Q 766 -581 766 -747 
Q 766 -906 950 -1036 
Q 1134 -1166 1644 -1166 
Q 2078 -1166 2326 -1050 
Q 2575 -934 2575 -725 
Q 2575 -647 2528 -594 
Q 2444 -500 2273 -465 
Q 2103 -431 1366 -431 
z
" transform="scale(0.015625)"/>
      </defs>
      <use xlink:href="#TimesNewRomanPS-BoldMT-49"/>
      <use xlink:href="#TimesNewRomanPS-BoldMT-44" transform="translate(38.916016 0)"/>
      <use xlink:href="#TimesNewRomanPS-BoldMT-2d" transform="translate(111.132812 0)"/>
      <use xlink:href="#TimesNewRomanPS-BoldMT-43" transform="translate(144.433594 0)"/>
      <use xlink:href="#TimesNewRomanPS-BoldMT-6f" transform="translate(216.650391 0)"/>
      <use xlink:href="#TimesNewRomanPS-BoldMT-6e" transform="translate(266.650391 0)"/>
      <use xlink:href="#TimesNewRomanPS-BoldMT-74" transform="translate(322.265625 0)"/>
      <use xlink:href="#TimesNewRomanPS-BoldMT-65" transform="translate(355.566406 0)"/>
      <use xlink:href="#TimesNewRomanPS-BoldMT-78" transform="translate(399.951172 0)"/>
      <use xlink:href="#TimesNewRomanPS-BoldMT-74" transform="translate(449.951172 0)"/>
      <use xlink:href="#TimesNewRomanPS-BoldMT-20" transform="translate(483.251953 0)"/>
      <use xlink:href="#TimesNewRomanPS-BoldMT-43" transform="translate(508.251953 0)"/>
      <use xlink:href="#TimesNewRomanPS-BoldMT-61" transform="translate(580.46875 0)"/>
      <use xlink:href="#TimesNewRomanPS-BoldMT-63" transform="translate(630.46875 0)"/>
      <use xlink:href="#TimesNewRomanPS-BoldMT-68" transform="translate(674.853516 0)"/>
      <use xlink:href="#TimesNewRomanPS-BoldMT-65" transform="translate(730.46875 0)"/>
      <use xlink:href="#TimesNewRomanPS-BoldMT-20" transform="translate(774.853516 0)"/>
      <use xlink:href="#TimesNewRomanPS-BoldMT-4c" transform="translate(799.853516 0)"/>
      <use xlink:href="#TimesNewRomanPS-BoldMT-65" transform="translate(866.552734 0)"/>
      <use xlink:href="#TimesNewRomanPS-BoldMT-6e" transform="translate(910.9375 0)"/>
      <use xlink:href="#TimesNewRomanPS-BoldMT-67" transform="translate(966.552734 0)"/>
      <use xlink:href="#TimesNewRomanPS-BoldMT-74" transform="translate(1016.552734 0)"/>
      <use xlink:href="#TimesNewRomanPS-BoldMT-68" transform="translate(1049.853516 0)"/>
     </g>
    </g>
   </g>
   <g id="matplotlib.axis_2">
    <g id="ytick_1">
     <g id="line2d_29">
      <path d="M 81.97125 611.997875 
L 911.41125 611.997875 
" clip-path="url(#p218c0c3f61)" style="fill: none; stroke: #e5ebf2; stroke-linecap: square"/>
     </g>
     <g id="line2d_30">
      <defs>
       <path id="m4c48d2e800" d="M 0 0 
L -6 0 
" style="stroke: #95a0ae; stroke-width: 2.4"/>
      </defs>
      <g>
       <use xlink:href="#m4c48d2e800" x="81.97125" y="611.997875" style="fill: #95a0ae; stroke: #95a0ae; stroke-width: 2.4"/>
      </g>
     </g>
     <g id="text_6">
      <!-- 0.0 -->
      <g style="fill: #95a0ae" transform="translate(47.47125 618.61975) scale(0.2 -0.2)">
       <defs>
        <path id="TimesNewRomanPS-BoldMT-30" d="M 2966 2119 
Q 2966 1484 2788 934 
Q 2681 597 2501 381 
Q 2322 166 2094 39 
Q 1866 -88 1597 -88 
Q 1291 -88 1044 68 
Q 797 225 606 516 
Q 469 728 366 1081 
Q 231 1559 231 2069 
Q 231 2759 425 3338 
Q 584 3816 909 4070 
Q 1234 4325 1597 4325 
Q 1966 4325 2286 4073 
Q 2606 3822 2756 3397 
Q 2966 2813 2966 2119 
z
M 2003 2125 
Q 2003 3238 1991 3422 
Q 1959 3856 1841 4009 
Q 1763 4109 1588 4109 
Q 1453 4109 1375 4034 
Q 1259 3925 1218 3648 
Q 1178 3372 1178 1719 
Q 1178 819 1241 513 
Q 1288 291 1375 216 
Q 1463 141 1606 141 
Q 1763 141 1841 241 
Q 1972 416 1991 781 
L 2003 2125 
z
" transform="scale(0.015625)"/>
        <path id="TimesNewRomanPS-BoldMT-2e" d="M 800 963 
Q 1019 963 1170 809 
Q 1322 656 1322 441 
Q 1322 225 1169 73 
Q 1016 -78 800 -78 
Q 584 -78 432 73 
Q 281 225 281 441 
Q 281 656 432 809 
Q 584 963 800 963 
z
" transform="scale(0.015625)"/>
       </defs>
       <use xlink:href="#TimesNewRomanPS-BoldMT-30"/>
       <use xlink:href="#TimesNewRomanPS-BoldMT-2e" transform="translate(50 0)"/>
       <use xlink:href="#TimesNewRomanPS-BoldMT-30" transform="translate(75 0)"/>
      </g>
     </g>
    </g>
    <g id="ytick_2">
     <g id="line2d_31">
      <path d="M 81.97125 493.802675 
L 911.41125 493.802675 
" clip-path="url(#p218c0c3f61)" style="fill: none; stroke: #e5ebf2; stroke-linecap: square"/>
     </g>
     <g id="line2d_32">
      <g>
       <use xlink:href="#m4c48d2e800" x="81.97125" y="493.802675" style="fill: #95a0ae; stroke: #95a0ae; stroke-width: 2.4"/>
      </g>
     </g>
     <g id="text_7">
      <!-- 1.5 -->
      <g style="fill: #95a0ae" transform="translate(47.47125 500.42455) scale(0.2 -0.2)">
       <use xlink:href="#TimesNewRomanPS-BoldMT-31"/>
       <use xlink:href="#TimesNewRomanPS-BoldMT-2e" transform="translate(50 0)"/>
       <use xlink:href="#TimesNewRomanPS-BoldMT-35" transform="translate(75 0)"/>
      </g>
     </g>
    </g>
    <g id="ytick_3">
     <g id="line2d_33">
      <path d="M 81.97125 375.607475 
L 911.41125 375.607475 
" clip-path="url(#p218c0c3f61)" style="fill: none; stroke: #e5ebf2; stroke-linecap: square"/>
     </g>
     <g id="line2d_34">
      <g>
       <use xlink:href="#m4c48d2e800" x="81.97125" y="375.607475" style="fill: #95a0ae; stroke: #95a0ae; stroke-width: 2.4"/>
      </g>
     </g>
     <g id="text_8">
      <!-- 3.0 -->
      <g style="fill: #95a0ae" transform="translate(47.47125 382.22935) scale(0.2 -0.2)">
       <defs>
        <path id="TimesNewRomanPS-BoldMT-33" d="M 947 2125 
L 947 2234 
Q 1303 2338 1440 2427 
Q 1578 2516 1678 2698 
Q 1778 2881 1778 3069 
Q 1778 3328 1589 3514 
Q 1400 3700 1119 3700 
Q 681 3700 375 3238 
L 259 3278 
Q 484 3800 836 4062 
Q 1188 4325 1619 4325 
Q 2059 4325 2345 4056 
Q 2631 3788 2631 3428 
Q 2631 3194 2498 2976 
Q 2366 2759 2081 2594 
Q 2447 2416 2639 2155 
Q 2831 1894 2831 1500 
Q 2831 838 2351 373 
Q 1872 -91 1066 -91 
Q 528 -91 281 88 
Q 103 213 103 409 
Q 103 553 206 654 
Q 309 756 444 756 
Q 547 756 638 713 
Q 688 688 992 439 
Q 1297 191 1563 191 
Q 1794 191 1959 373 
Q 2125 556 2125 838 
Q 2125 1266 1825 1627 
Q 1525 1988 947 2125 
z
" transform="scale(0.015625)"/>
       </defs>
       <use xlink:href="#TimesNewRomanPS-BoldMT-33"/>
       <use xlink:href="#TimesNewRomanPS-BoldMT-2e" transform="translate(50 0)"/>
       <use xlink:href="#TimesNewRomanPS-BoldMT-30" transform="translate(75 0)"/>
      </g>
     </g>
    </g>
    <g id="ytick_4">
     <g id="line2d_35">
      <path d="M 81.97125 257.412275 
L 911.41125 257.412275 
" clip-path="url(#p218c0c3f61)" style="fill: none; stroke: #e5ebf2; stroke-linecap: square"/>
     </g>
     <g id="line2d_36">
      <g>
       <use xlink:href="#m4c48d2e800" x="81.97125" y="257.412275" style="fill: #95a0ae; stroke: #95a0ae; stroke-width: 2.4"/>
      </g>
     </g>
     <g id="text_9">
      <!-- 4.5 -->
      <g style="fill: #95a0ae" transform="translate(47.47125 264.03415) scale(0.2 -0.2)">
       <use xlink:href="#TimesNewRomanPS-BoldMT-34"/>
       <use xlink:href="#TimesNewRomanPS-BoldMT-2e" transform="translate(50 0)"/>
       <use xlink:href="#TimesNewRomanPS-BoldMT-35" transform="translate(75 0)"/>
      </g>
     </g>
    </g>
    <g id="ytick_5">
     <g id="line2d_37">
      <path d="M 81.97125 139.217075 
L 911.41125 139.217075 
" clip-path="url(#p218c0c3f61)" style="fill: none; stroke: #e5ebf2; stroke-linecap: square"/>
     </g>
     <g id="line2d_38">
      <g>
       <use xlink:href="#m4c48d2e800" x="81.97125" y="139.217075" style="fill: #95a0ae; stroke: #95a0ae; stroke-width: 2.4"/>
      </g>
     </g>
     <g id="text_10">
      <!-- 6.0 -->
      <g style="fill: #95a0ae" transform="translate(47.47125 145.83895) scale(0.2 -0.2)">
       <defs>
        <path id="TimesNewRomanPS-BoldMT-36" d="M 3006 4325 
L 3006 4238 
Q 2441 4094 2098 3867 
Q 1756 3641 1557 3317 
Q 1359 2994 1250 2516 
Q 1388 2609 1478 2638 
Q 1681 2700 1888 2700 
Q 2363 2700 2680 2354 
Q 2997 2009 2997 1413 
Q 2997 994 2825 644 
Q 2653 294 2337 103 
Q 2022 -88 1663 -88 
Q 1272 -88 940 126 
Q 609 341 423 753 
Q 238 1166 238 1650 
Q 238 2363 580 2977 
Q 922 3591 1551 3955 
Q 2181 4319 3006 4325 
z
M 1209 2263 
Q 1184 1831 1184 1631 
Q 1184 1200 1267 797 
Q 1350 394 1494 231 
Q 1597 116 1738 116 
Q 1881 116 1993 283 
Q 2106 450 2106 963 
Q 2106 1825 1897 2153 
Q 1763 2366 1534 2366 
Q 1409 2366 1209 2263 
z
" transform="scale(0.015625)"/>
       </defs>
       <use xlink:href="#TimesNewRomanPS-BoldMT-36"/>
       <use xlink:href="#TimesNewRomanPS-BoldMT-2e" transform="translate(50 0)"/>
       <use xlink:href="#TimesNewRomanPS-BoldMT-30" transform="translate(75 0)"/>
      </g>
     </g>
    </g>
    <g id="ytick_6">
     <g id="line2d_39">
      <path d="M 81.97125 21.021875 
L 911.41125 21.021875 
" clip-path="url(#p218c0c3f61)" style="fill: none; stroke: #e5ebf2; stroke-linecap: square"/>
     </g>
     <g id="line2d_40">
      <g>
       <use xlink:href="#m4c48d2e800" x="81.97125" y="21.021875" style="fill: #95a0ae; stroke: #95a0ae; stroke-width: 2.4"/>
      </g>
     </g>
     <g id="text_11">
      <!-- 7.5 -->
      <g style="fill: #95a0ae" transform="translate(47.47125 27.64375) scale(0.2 -0.2)">
       <use xlink:href="#TimesNewRomanPS-BoldMT-37"/>
       <use xlink:href="#TimesNewRomanPS-BoldMT-2e" transform="translate(50 0)"/>
       <use xlink:href="#TimesNewRomanPS-BoldMT-35" transform="translate(75 0)"/>
      </g>
     </g>
    </g>
    <g id="ytick_7">
     <g id="line2d_41">
      <path d="M 81.97125 552.900275 
L 911.41125 552.900275 
" clip-path="url(#p218c0c3f61)" style="fill: none; stroke: #f2f5f8; stroke-width: 0.85; stroke-linecap: square"/>
     </g>
     <g id="line2d_42">
      <defs>
       <path id="m6f73111457" d="M 0 0 
L -3 0 
" style="stroke: #95a0ae; stroke-width: 1.2"/>
      </defs>
      <g>
       <use xlink:href="#m6f73111457" x="81.97125" y="552.900275" style="fill: #95a0ae; stroke: #95a0ae; stroke-width: 1.2"/>
      </g>
     </g>
    </g>
    <g id="ytick_8">
     <g id="line2d_43">
      <path d="M 81.97125 434.705075 
L 911.41125 434.705075 
" clip-path="url(#p218c0c3f61)" style="fill: none; stroke: #f2f5f8; stroke-width: 0.85; stroke-linecap: square"/>
     </g>
     <g id="line2d_44">
      <g>
       <use xlink:href="#m6f73111457" x="81.97125" y="434.705075" style="fill: #95a0ae; stroke: #95a0ae; stroke-width: 1.2"/>
      </g>
     </g>
    </g>
    <g id="ytick_9">
     <g id="line2d_45">
      <path d="M 81.97125 316.509875 
L 911.41125 316.509875 
" clip-path="url(#p218c0c3f61)" style="fill: none; stroke: #f2f5f8; stroke-width: 0.85; stroke-linecap: square"/>
     </g>
     <g id="line2d_46">
      <g>
       <use xlink:href="#m6f73111457" x="81.97125" y="316.509875" style="fill: #95a0ae; stroke: #95a0ae; stroke-width: 1.2"/>
      </g>
     </g>
    </g>
    <g id="ytick_10">
     <g id="line2d_47">
      <path d="M 81.97125 198.314675 
L 911.41125 198.314675 
" clip-path="url(#p218c0c3f61)" style="fill: none; stroke: #f2f5f8; stroke-width: 0.85; stroke-linecap: square"/>
     </g>
     <g id="line2d_48">
      <g>
       <use xlink:href="#m6f73111457" x="81.97125" y="198.314675" style="fill: #95a0ae; stroke: #95a0ae; stroke-width: 1.2"/>
      </g>
     </g>
    </g>
    <g id="ytick_11">
     <g id="line2d_49">
      <path d="M 81.97125 80.119475 
L 911.41125 80.119475 
" clip-path="url(#p218c0c3f61)" style="fill: none; stroke: #f2f5f8; stroke-width: 0.85; stroke-linecap: square"/>
     </g>
     <g id="line2d_50">
      <g>
       <use xlink:href="#m6f73111457" x="81.97125" y="80.119475" style="fill: #95a0ae; stroke: #95a0ae; stroke-width: 1.2"/>
      </g>
     </g>
    </g>
    <g id="text_12">
     <!-- Runtime (s) -->
     <g style="fill: #95a0ae" transform="translate(30.3375 376.836125) rotate(-90) scale(0.24 -0.24)">
      <defs>
       <path id="TimesNewRomanPS-BoldMT-52" d="M 1700 1931 
L 1700 744 
Q 1700 400 1742 311 
Q 1784 222 1890 169 
Q 1997 116 2288 116 
L 2288 0 
L 119 0 
L 119 116 
Q 413 116 517 170 
Q 622 225 664 312 
Q 706 400 706 744 
L 706 3494 
Q 706 3838 664 3927 
Q 622 4016 515 4069 
Q 409 4122 119 4122 
L 119 4238 
L 2088 4238 
Q 2856 4238 3212 4131 
Q 3569 4025 3794 3739 
Q 4019 3453 4019 3069 
Q 4019 2600 3681 2294 
Q 3466 2100 3078 2003 
L 4097 569 
Q 4297 291 4381 222 
Q 4509 125 4678 116 
L 4678 0 
L 3344 0 
L 1978 1931 
L 1700 1931 
z
M 1700 4009 
L 1700 2153 
L 1878 2153 
Q 2313 2153 2528 2233 
Q 2744 2313 2867 2520 
Q 2991 2728 2991 3063 
Q 2991 3547 2764 3778 
Q 2538 4009 2034 4009 
L 1700 4009 
z
" transform="scale(0.015625)"/>
       <path id="TimesNewRomanPS-BoldMT-75" d="M 3038 2922 
L 3038 634 
Q 3038 300 3100 217 
Q 3163 134 3353 113 
L 3353 0 
L 2163 0 
L 2163 391 
Q 1953 141 1743 26 
Q 1534 -88 1275 -88 
Q 1028 -88 836 64 
Q 644 216 578 419 
Q 513 622 513 1128 
L 513 2288 
Q 513 2619 452 2700 
Q 391 2781 197 2806 
L 197 2922 
L 1388 2922 
L 1388 925 
Q 1388 613 1417 522 
Q 1447 431 1511 384 
Q 1575 338 1659 338 
Q 1772 338 1863 397 
Q 1988 478 2163 725 
L 2163 2288 
Q 2163 2619 2102 2700 
Q 2041 2781 1847 2806 
L 1847 2922 
L 3038 2922 
z
" transform="scale(0.015625)"/>
       <path id="TimesNewRomanPS-BoldMT-69" d="M 919 4338 
Q 1122 4338 1262 4195 
Q 1403 4053 1403 3853 
Q 1403 3653 1261 3512 
Q 1119 3372 919 3372 
Q 719 3372 578 3512 
Q 438 3653 438 3853 
Q 438 4053 578 4195 
Q 719 4338 919 4338 
z
M 1356 2922 
L 1356 606 
Q 1356 297 1428 211 
Q 1500 125 1709 113 
L 1709 0 
L 131 0 
L 131 113 
Q 325 119 419 225 
Q 481 297 481 606 
L 481 2313 
Q 481 2622 409 2708 
Q 338 2794 131 2806 
L 131 2922 
L 1356 2922 
z
" transform="scale(0.015625)"/>
       <path id="TimesNewRomanPS-BoldMT-6d" d="M 1428 2922 
L 1428 2538 
Q 1669 2800 1873 2904 
Q 2078 3009 2322 3009 
Q 2603 3009 2793 2878 
Q 2984 2747 3088 2478 
Q 3338 2759 3567 2884 
Q 3797 3009 4047 3009 
Q 4350 3009 4529 2870 
Q 4709 2731 4779 2517 
Q 4850 2303 4850 1834 
L 4850 638 
Q 4850 300 4911 219 
Q 4972 138 5166 113 
L 5166 0 
L 3656 0 
L 3656 113 
Q 3834 128 3919 250 
Q 3975 334 3975 638 
L 3975 1894 
Q 3975 2284 3944 2390 
Q 3913 2497 3845 2548 
Q 3778 2600 3688 2600 
Q 3553 2600 3415 2501 
Q 3278 2403 3138 2206 
L 3138 638 
Q 3138 322 3191 241 
Q 3263 125 3466 113 
L 3466 0 
L 1953 0 
L 1953 113 
Q 2075 119 2145 173 
Q 2216 228 2239 304 
Q 2263 381 2263 638 
L 2263 1894 
Q 2263 2291 2231 2391 
Q 2200 2491 2126 2547 
Q 2053 2603 1969 2603 
Q 1844 2603 1741 2538 
Q 1594 2441 1428 2206 
L 1428 638 
Q 1428 328 1489 229 
Q 1550 131 1744 113 
L 1744 0 
L 238 0 
L 238 113 
Q 422 131 500 231 
Q 553 300 553 638 
L 553 2288 
Q 553 2619 492 2700 
Q 431 2781 238 2806 
L 238 2922 
L 1428 2922 
z
" transform="scale(0.015625)"/>
       <path id="TimesNewRomanPS-BoldMT-28" d="M 2056 4334 
L 2056 4191 
Q 1731 3978 1578 3775 
Q 1366 3494 1247 3053 
Q 1097 2506 1097 1525 
Q 1097 600 1233 87 
Q 1369 -425 1603 -741 
Q 1766 -959 2056 -1125 
L 2056 -1281 
Q 1303 -1028 779 -248 
Q 256 531 256 1544 
Q 256 2544 778 3314 
Q 1300 4084 2056 4334 
z
" transform="scale(0.015625)"/>
       <path id="TimesNewRomanPS-BoldMT-73" d="M 2063 3003 
L 2109 2006 
L 2003 2006 
Q 1813 2450 1608 2612 
Q 1403 2775 1200 2775 
Q 1072 2775 981 2689 
Q 891 2603 891 2491 
Q 891 2406 953 2328 
Q 1053 2200 1512 1889 
Q 1972 1578 2117 1361 
Q 2263 1144 2263 875 
Q 2263 631 2141 397 
Q 2019 163 1797 37 
Q 1575 -88 1306 -88 
Q 1097 -88 747 44 
Q 653 78 619 78 
Q 516 78 447 -78 
L 344 -78 
L 294 972 
L 400 972 
Q 541 559 786 353 
Q 1031 147 1250 147 
Q 1400 147 1495 239 
Q 1591 331 1591 463 
Q 1591 613 1497 722 
Q 1403 831 1078 1053 
Q 600 1384 459 1559 
Q 253 1816 253 2125 
Q 253 2463 486 2736 
Q 719 3009 1159 3009 
Q 1397 3009 1619 2894 
Q 1703 2847 1756 2847 
Q 1813 2847 1847 2870 
Q 1881 2894 1956 3003 
L 2063 3003 
z
" transform="scale(0.015625)"/>
       <path id="TimesNewRomanPS-BoldMT-29" d="M 78 -1281 
L 78 -1138 
Q 403 -922 556 -719 
Q 766 -438 888 0 
Q 1038 550 1038 1531 
Q 1038 2456 902 2967 
Q 766 3478 531 3794 
Q 369 4013 78 4178 
L 78 4334 
Q 831 4081 1354 3301 
Q 1878 2522 1878 1509 
Q 1878 513 1354 -257 
Q 831 -1028 78 -1281 
z
" transform="scale(0.015625)"/>
      </defs>
      <use xlink:href="#TimesNewRomanPS-BoldMT-52"/>
      <use xlink:href="#TimesNewRomanPS-BoldMT-75" transform="translate(72.216797 0)"/>
      <use xlink:href="#TimesNewRomanPS-BoldMT-6e" transform="translate(127.832031 0)"/>
      <use xlink:href="#TimesNewRomanPS-BoldMT-74" transform="translate(183.447266 0)"/>
      <use xlink:href="#TimesNewRomanPS-BoldMT-69" transform="translate(216.748047 0)"/>
      <use xlink:href="#TimesNewRomanPS-BoldMT-6d" transform="translate(244.53125 0)"/>
      <use xlink:href="#TimesNewRomanPS-BoldMT-65" transform="translate(327.832031 0)"/>
      <use xlink:href="#TimesNewRomanPS-BoldMT-20" transform="translate(372.216797 0)"/>
      <use xlink:href="#TimesNewRomanPS-BoldMT-28" transform="translate(397.216797 0)"/>
      <use xlink:href="#TimesNewRomanPS-BoldMT-73" transform="translate(430.517578 0)"/>
      <use xlink:href="#TimesNewRomanPS-BoldMT-29" transform="translate(469.433594 0)"/>
     </g>
    </g>
   </g>
   <g id="patch_3">
    <path d="M 132.723698 611.997875 
L 193.626635 611.997875 
L 193.626635 264.031206 
L 132.723698 264.031206 
z
" clip-path="url(#p218c0c3f61)" style="fill: #d7e0e9; opacity: 0.8; stroke: #95a0ae; stroke-width: 1.8; stroke-linejoin: miter"/>
   </g>
   <g id="patch_4">
    <path d="M 306.732089 611.997875 
L 367.635026 611.997875 
L 367.635026 205.248793 
L 306.732089 205.248793 
z
" clip-path="url(#p218c0c3f61)" style="fill: #d7e0e9; opacity: 0.8; stroke: #95a0ae; stroke-width: 1.8; stroke-linejoin: miter"/>
   </g>
   <g id="patch_5">
    <path d="M 538.743278 611.997875 
L 599.646215 611.997875 
L 599.646215 167.426329 
L 538.743278 167.426329 
z
" clip-path="url(#p218c0c3f61)" style="fill: #d7e0e9; opacity: 0.8; stroke: #95a0ae; stroke-width: 1.8; stroke-linejoin: miter"/>
   </g>
   <g id="patch_6">
    <path d="M 770.754467 611.997875 
L 831.657404 611.997875 
L 831.657404 137.562342 
L 770.754467 137.562342 
z
" clip-path="url(#p218c0c3f61)" style="fill: #d7e0e9; opacity: 0.8; stroke: #95a0ae; stroke-width: 1.8; stroke-linejoin: miter"/>
   </g>
   <g id="patch_7">
    <path d="M 81.97125 611.997875 
L 81.97125 21.021875 
" style="fill: none; stroke: #95a0ae; stroke-width: 3; stroke-linejoin: miter; stroke-linecap: square"/>
   </g>
   <g id="patch_8">
    <path d="M 81.97125 611.997875 
L 911.41125 611.997875 
" style="fill: none; stroke: #b8c2cd; stroke-width: 3; stroke-linejoin: miter; stroke-linecap: square"/>
   </g>
   <g id="patch_9">
    <path d="M 81.97125 21.021875 
L 911.41125 21.021875 
" style="fill: none; stroke: #b8c2cd; stroke-width: 3; stroke-linejoin: miter; stroke-linecap: square"/>
   </g>
   <g id="text_13">
    <!-- Main Metric Curves with Variable Cache Length -->
    <g style="fill: #1a1e23" transform="translate(94.41285 60.250603) scale(0.23 -0.23)">
     <defs>
      <path id="TimesNewRomanPS-BoldMT-4d" d="M 3050 1444 
L 4200 4238 
L 5925 4238 
L 5925 4122 
L 5788 4122 
Q 5600 4122 5488 4056 
Q 5409 4013 5363 3909 
Q 5328 3834 5328 3519 
L 5328 725 
Q 5328 400 5362 319 
Q 5397 238 5503 177 
Q 5609 116 5788 116 
L 5925 116 
L 5925 0 
L 3713 0 
L 3713 116 
L 3850 116 
Q 4038 116 4150 181 
Q 4228 225 4275 331 
Q 4309 406 4309 725 
L 4309 3866 
L 2684 0 
L 2609 0 
L 959 3838 
L 959 853 
Q 959 541 975 469 
Q 1016 313 1152 214 
Q 1288 116 1578 116 
L 1578 0 
L 128 0 
L 128 116 
L 172 116 
Q 313 113 434 161 
Q 556 209 618 290 
Q 681 372 716 519 
Q 722 553 722 838 
L 722 3519 
Q 722 3841 687 3920 
Q 653 4000 547 4061 
Q 441 4122 263 4122 
L 128 4122 
L 128 4238 
L 1859 4238 
L 3050 1444 
z
" transform="scale(0.015625)"/>
      <path id="TimesNewRomanPS-BoldMT-72" d="M 1428 2922 
L 1428 2259 
Q 1719 2713 1937 2861 
Q 2156 3009 2359 3009 
Q 2534 3009 2639 2901 
Q 2744 2794 2744 2597 
Q 2744 2388 2642 2272 
Q 2541 2156 2397 2156 
Q 2231 2156 2109 2262 
Q 1988 2369 1966 2381 
Q 1934 2400 1894 2400 
Q 1803 2400 1722 2331 
Q 1594 2225 1528 2028 
Q 1428 1725 1428 1359 
L 1428 688 
L 1431 513 
Q 1431 334 1453 284 
Q 1491 200 1564 161 
Q 1638 122 1813 113 
L 1813 0 
L 234 0 
L 234 113 
Q 425 128 492 217 
Q 559 306 559 688 
L 559 2303 
Q 559 2553 534 2622 
Q 503 2709 443 2750 
Q 384 2791 234 2806 
L 234 2922 
L 1428 2922 
z
" transform="scale(0.015625)"/>
      <path id="TimesNewRomanPS-BoldMT-76" d="M 1534 -88 
L 550 2178 
Q 372 2588 272 2697 
Q 200 2778 59 2806 
L 59 2922 
L 1613 2922 
L 1613 2806 
Q 1466 2806 1413 2753 
Q 1338 2684 1338 2591 
Q 1338 2475 1475 2156 
L 1956 1059 
L 2341 2006 
Q 2506 2413 2506 2581 
Q 2506 2678 2436 2739 
Q 2366 2800 2188 2806 
L 2188 2922 
L 3144 2922 
L 3144 2806 
Q 3006 2788 2918 2703 
Q 2831 2619 2656 2206 
L 1681 -88 
L 1534 -88 
z
" transform="scale(0.015625)"/>
      <path id="TimesNewRomanPS-BoldMT-77" d="M 3113 -88 
L 2313 2056 
L 1528 -88 
L 1366 -88 
L 588 2031 
Q 413 2516 291 2663 
Q 213 2763 53 2806 
L 53 2922 
L 1528 2922 
L 1528 2806 
Q 1378 2806 1322 2762 
Q 1266 2719 1266 2663 
Q 1266 2609 1366 2344 
L 1794 1203 
L 2206 2344 
L 2175 2419 
Q 2081 2653 2011 2717 
Q 1941 2781 1794 2806 
L 1794 2922 
L 3291 2922 
L 3291 2806 
Q 3116 2797 3069 2758 
Q 3022 2719 3022 2647 
Q 3022 2578 3113 2344 
L 3525 1203 
L 3900 2253 
Q 3981 2478 3981 2559 
Q 3981 2681 3922 2737 
Q 3863 2794 3691 2806 
L 3691 2922 
L 4556 2922 
L 4556 2806 
Q 4413 2788 4328 2705 
Q 4244 2622 4109 2234 
L 3291 -88 
L 3113 -88 
z
" transform="scale(0.015625)"/>
      <path id="TimesNewRomanPS-BoldMT-56" d="M 4556 4238 
L 4556 4122 
Q 4325 4084 4144 3875 
Q 4013 3719 3753 3141 
L 2294 -97 
L 2191 -97 
L 738 3272 
Q 475 3881 386 3987 
Q 297 4094 50 4122 
L 50 4238 
L 2081 4238 
L 2081 4122 
L 2013 4122 
Q 1738 4122 1638 4053 
Q 1566 4006 1566 3916 
Q 1566 3859 1591 3782 
Q 1616 3706 1759 3372 
L 2663 1263 
L 3500 3141 
Q 3650 3481 3684 3597 
Q 3719 3713 3719 3794 
Q 3719 3888 3669 3959 
Q 3619 4031 3522 4069 
Q 3388 4122 3166 4122 
L 3166 4238 
L 4556 4238 
z
" transform="scale(0.015625)"/>
      <path id="TimesNewRomanPS-BoldMT-62" d="M 1347 4238 
L 1347 2628 
Q 1716 3009 2153 3009 
Q 2453 3009 2718 2832 
Q 2984 2656 3134 2331 
Q 3284 2006 3284 1581 
Q 3284 1103 3093 712 
Q 2903 322 2584 117 
Q 2266 -88 1856 -88 
Q 1619 -88 1434 -12 
Q 1250 63 1072 231 
L 588 -84 
L 481 -84 
L 481 3631 
Q 481 3884 459 3944 
Q 428 4031 361 4073 
Q 294 4116 134 4122 
L 134 4238 
L 1347 4238 
z
M 1347 2350 
L 1347 1050 
Q 1347 653 1366 544 
Q 1397 359 1515 245 
Q 1634 131 1819 131 
Q 1978 131 2092 222 
Q 2206 313 2282 581 
Q 2359 850 2359 1550 
Q 2359 2222 2191 2472 
Q 2069 2653 1863 2653 
Q 1594 2653 1347 2350 
z
" transform="scale(0.015625)"/>
      <path id="TimesNewRomanPS-BoldMT-6c" d="M 1359 4238 
L 1359 606 
Q 1359 297 1431 211 
Q 1503 125 1713 113 
L 1713 0 
L 134 0 
L 134 113 
Q 328 119 422 225 
Q 484 297 484 606 
L 484 3631 
Q 484 3938 412 4023 
Q 341 4109 134 4122 
L 134 4238 
L 1359 4238 
z
" transform="scale(0.015625)"/>
     </defs>
     <use xlink:href="#TimesNewRomanPS-BoldMT-4d"/>
     <use xlink:href="#TimesNewRomanPS-BoldMT-61" transform="translate(94.384766 0)"/>
     <use xlink:href="#TimesNewRomanPS-BoldMT-69" transform="translate(144.384766 0)"/>
     <use xlink:href="#TimesNewRomanPS-BoldMT-6e" transform="translate(172.167969 0)"/>
     <use xlink:href="#TimesNewRomanPS-BoldMT-20" transform="translate(227.783203 0)"/>
     <use xlink:href="#TimesNewRomanPS-BoldMT-4d" transform="translate(252.783203 0)"/>
     <use xlink:href="#TimesNewRomanPS-BoldMT-65" transform="translate(347.167969 0)"/>
     <use xlink:href="#TimesNewRomanPS-BoldMT-74" transform="translate(391.552734 0)"/>
     <use xlink:href="#TimesNewRomanPS-BoldMT-72" transform="translate(424.853516 0)"/>
     <use xlink:href="#TimesNewRomanPS-BoldMT-69" transform="translate(469.238281 0)"/>
     <use xlink:href="#TimesNewRomanPS-BoldMT-63" transform="translate(497.021484 0)"/>
     <use xlink:href="#TimesNewRomanPS-BoldMT-20" transform="translate(541.40625 0)"/>
     <use xlink:href="#TimesNewRomanPS-BoldMT-43" transform="translate(566.40625 0)"/>
     <use xlink:href="#TimesNewRomanPS-BoldMT-75" transform="translate(638.623047 0)"/>
     <use xlink:href="#TimesNewRomanPS-BoldMT-72" transform="translate(694.238281 0)"/>
     <use xlink:href="#TimesNewRomanPS-BoldMT-76" transform="translate(738.623047 0)"/>
     <use xlink:href="#TimesNewRomanPS-BoldMT-65" transform="translate(788.623047 0)"/>
     <use xlink:href="#TimesNewRomanPS-BoldMT-73" transform="translate(833.007812 0)"/>
     <use xlink:href="#TimesNewRomanPS-BoldMT-20" transform="translate(871.923828 0)"/>
     <use xlink:href="#TimesNewRomanPS-BoldMT-77" transform="translate(896.923828 0)"/>
     <use xlink:href="#TimesNewRomanPS-BoldMT-69" transform="translate(969.140625 0)"/>
     <use xlink:href="#TimesNewRomanPS-BoldMT-74" transform="translate(996.923828 0)"/>
     <use xlink:href="#TimesNewRomanPS-BoldMT-68" transform="translate(1030.224609 0)"/>
     <use xlink:href="#TimesNewRomanPS-BoldMT-20" transform="translate(1085.839844 0)"/>
     <use xlink:href="#TimesNewRomanPS-BoldMT-56" transform="translate(1109.089844 0)"/>
     <use xlink:href="#TimesNewRomanPS-BoldMT-61" transform="translate(1172.181641 0)"/>
     <use xlink:href="#TimesNewRomanPS-BoldMT-72" transform="translate(1222.181641 0)"/>
     <use xlink:href="#TimesNewRomanPS-BoldMT-69" transform="translate(1266.566406 0)"/>
     <use xlink:href="#TimesNewRomanPS-BoldMT-61" transform="translate(1294.349609 0)"/>
     <use xlink:href="#TimesNewRomanPS-BoldMT-62" transform="translate(1344.349609 0)"/>
     <use xlink:href="#TimesNewRomanPS-BoldMT-6c" transform="translate(1399.964844 0)"/>
     <use xlink:href="#TimesNewRomanPS-BoldMT-65" transform="translate(1427.748047 0)"/>
     <use xlink:href="#TimesNewRomanPS-BoldMT-20" transform="translate(1472.132812 0)"/>
     <use xlink:href="#TimesNewRomanPS-BoldMT-43" transform="translate(1497.132812 0)"/>
     <use xlink:href="#TimesNewRomanPS-BoldMT-61" transform="translate(1569.349609 0)"/>
     <use xlink:href="#TimesNewRomanPS-BoldMT-63" transform="translate(1619.349609 0)"/>
     <use xlink:href="#TimesNewRomanPS-BoldMT-68" transform="translate(1663.734375 0)"/>
     <use xlink:href="#TimesNewRomanPS-BoldMT-65" transform="translate(1719.349609 0)"/>
     <use xlink:href="#TimesNewRomanPS-BoldMT-20" transform="translate(1763.734375 0)"/>
     <use xlink:href="#TimesNewRomanPS-BoldMT-4c" transform="translate(1788.734375 0)"/>
     <use xlink:href="#TimesNewRomanPS-BoldMT-65" transform="translate(1855.433594 0)"/>
     <use xlink:href="#TimesNewRomanPS-BoldMT-6e" transform="translate(1899.818359 0)"/>
     <use xlink:href="#TimesNewRomanPS-BoldMT-67" transform="translate(1955.433594 0)"/>
     <use xlink:href="#TimesNewRomanPS-BoldMT-74" transform="translate(2005.433594 0)"/>
     <use xlink:href="#TimesNewRomanPS-BoldMT-68" transform="translate(2038.734375 0)"/>
    </g>
   </g>
   <g id="legend_1">
    <g id="patch_10">
     <path d="M 780.98181 110.678755 
L 897.98181 110.678755 
Q 901.58181 110.678755 901.58181 107.078755 
L 901.58181 28.894067 
Q 901.58181 25.294067 897.98181 25.294067 
L 780.98181 25.294067 
Q 777.38181 25.294067 777.38181 28.894067 
L 777.38181 107.078755 
Q 777.38181 110.678755 780.98181 110.678755 
z
" style="fill: #ffffff; opacity: 0.98; stroke: #d6dee7; stroke-linejoin: miter"/>
    </g>
    <g id="line2d_51">
     <path d="M 787.28181 41.494067 
L 805.28181 41.494067 
L 823.28181 41.494067 
" style="fill: none; stroke: #c97531; stroke-width: 3; stroke-linecap: square"/>
     <defs>
      <path id="mc448cea6aa" d="M 0 4.6 
C 1.219934 4.6 2.390067 4.115315 3.252691 3.252691 
C 4.115315 2.390067 4.6 1.219934 4.6 0 
C 4.6 -1.219934 4.115315 -2.390067 3.252691 -3.252691 
C 2.390067 -4.115315 1.219934 -4.6 0 -4.6 
C -1.219934 -4.6 -2.390067 -4.115315 -3.252691 -3.252691 
C -4.115315 -2.390067 -4.6 -1.219934 -4.6 0 
C -4.6 1.219934 -4.115315 2.390067 -3.252691 3.252691 
C -2.390067 4.115315 -1.219934 4.6 0 4.6 
z
" style="stroke: #c97531; stroke-width: 1.8"/>
     </defs>
     <g>
      <use xlink:href="#mc448cea6aa" x="805.28181" y="41.494067" style="fill: #ffffff; stroke: #c97531; stroke-width: 1.8"/>
     </g>
    </g>
    <g id="text_14">
     <!-- FID -->
     <g transform="translate(837.68181 47.794067) scale(0.18 -0.18)">
      <defs>
       <path id="TimesNewRomanPSMT-46" d="M 1309 4006 
L 1309 2341 
L 2081 2341 
Q 2347 2341 2470 2458 
Q 2594 2575 2634 2922 
L 2750 2922 
L 2750 1488 
L 2634 1488 
Q 2631 1734 2570 1850 
Q 2509 1966 2401 2023 
Q 2294 2081 2081 2081 
L 1309 2081 
L 1309 750 
Q 1309 428 1350 325 
Q 1381 247 1481 191 
Q 1619 116 1769 116 
L 1922 116 
L 1922 0 
L 103 0 
L 103 116 
L 253 116 
Q 516 116 634 269 
Q 709 369 709 750 
L 709 3488 
Q 709 3809 669 3913 
Q 638 3991 541 4047 
Q 406 4122 253 4122 
L 103 4122 
L 103 4238 
L 3256 4238 
L 3297 3306 
L 3188 3306 
Q 3106 3603 2998 3742 
Q 2891 3881 2733 3943 
Q 2575 4006 2244 4006 
L 1309 4006 
z
" transform="scale(0.015625)"/>
       <path id="TimesNewRomanPSMT-49" d="M 1975 116 
L 1975 0 
L 159 0 
L 159 116 
L 309 116 
Q 572 116 691 269 
Q 766 369 766 750 
L 766 3488 
Q 766 3809 725 3913 
Q 694 3991 597 4047 
Q 459 4122 309 4122 
L 159 4122 
L 159 4238 
L 1975 4238 
L 1975 4122 
L 1822 4122 
Q 1563 4122 1444 3969 
Q 1366 3869 1366 3488 
L 1366 750 
Q 1366 428 1406 325 
Q 1438 247 1538 191 
Q 1672 116 1822 116 
L 1975 116 
z
" transform="scale(0.015625)"/>
       <path id="TimesNewRomanPSMT-44" d="M 109 0 
L 109 116 
L 269 116 
Q 538 116 650 288 
Q 719 391 719 750 
L 719 3488 
Q 719 3884 631 3984 
Q 509 4122 269 4122 
L 109 4122 
L 109 4238 
L 1834 4238 
Q 2784 4238 3279 4022 
Q 3775 3806 4076 3303 
Q 4378 2800 4378 2141 
Q 4378 1256 3841 663 
Q 3238 0 2003 0 
L 109 0 
z
M 1319 306 
Q 1716 219 1984 219 
Q 2709 219 3187 728 
Q 3666 1238 3666 2109 
Q 3666 2988 3187 3494 
Q 2709 4000 1959 4000 
Q 1678 4000 1319 3909 
L 1319 306 
z
" transform="scale(0.015625)"/>
      </defs>
      <use xlink:href="#TimesNewRomanPSMT-46"/>
      <use xlink:href="#TimesNewRomanPSMT-49" transform="translate(55.615234 0)"/>
      <use xlink:href="#TimesNewRomanPSMT-44" transform="translate(88.916016 0)"/>
     </g>
    </g>
    <g id="line2d_52">
     <path d="M 787.28181 66.04438 
L 805.28181 66.04438 
L 823.28181 66.04438 
" style="fill: none; stroke: #274b6c; stroke-width: 3; stroke-linecap: square"/>
     <defs>
      <path id="m317b58332e" d="M 0 4.6 
C 1.219934 4.6 2.390067 4.115315 3.252691 3.252691 
C 4.115315 2.390067 4.6 1.219934 4.6 0 
C 4.6 -1.219934 4.115315 -2.390067 3.252691 -3.252691 
C 2.390067 -4.115315 1.219934 -4.6 0 -4.6 
C -1.219934 -4.6 -2.390067 -4.115315 -3.252691 -3.252691 
C -4.115315 -2.390067 -4.6 -1.219934 -4.6 0 
C -4.6 1.219934 -4.115315 2.390067 -3.252691 3.252691 
C -2.390067 4.115315 -1.219934 4.6 0 4.6 
z
" style="stroke: #274b6c; stroke-width: 1.8"/>
     </defs>
     <g>
      <use xlink:href="#m317b58332e" x="805.28181" y="66.04438" style="fill: #ffffff; stroke: #274b6c; stroke-width: 1.8"/>
     </g>
    </g>
    <g id="text_15">
     <!-- FVD -->
     <g transform="translate(837.68181 72.34438) scale(0.18 -0.18)">
      <defs>
       <path id="TimesNewRomanPSMT-56" d="M 4544 4238 
L 4544 4122 
Q 4319 4081 4203 3978 
Q 4038 3825 3909 3509 
L 2431 -97 
L 2316 -97 
L 728 3556 
Q 606 3838 556 3900 
Q 478 3997 364 4051 
Q 250 4106 56 4122 
L 56 4238 
L 1788 4238 
L 1788 4122 
Q 1494 4094 1406 4022 
Q 1319 3950 1319 3838 
Q 1319 3681 1463 3350 
L 2541 866 
L 3541 3319 
Q 3688 3681 3688 3822 
Q 3688 3913 3597 3995 
Q 3506 4078 3291 4113 
Q 3275 4116 3238 4122 
L 3238 4238 
L 4544 4238 
z
" transform="scale(0.015625)"/>
      </defs>
      <use xlink:href="#TimesNewRomanPSMT-46"/>
      <use xlink:href="#TimesNewRomanPSMT-56" transform="translate(55.615234 0)"/>
      <use xlink:href="#TimesNewRomanPSMT-44" transform="translate(127.832031 0)"/>
     </g>
    </g>
    <g id="line2d_53">
     <path d="M 787.28181 90.594692 
L 805.28181 90.594692 
L 823.28181 90.594692 
" style="fill: none; stroke: #2f8d69; stroke-width: 3; stroke-linecap: square"/>
     <defs>
      <path id="m9d0c90ad22" d="M 0 4.6 
C 1.219934 4.6 2.390067 4.115315 3.252691 3.252691 
C 4.115315 2.390067 4.6 1.219934 4.6 0 
C 4.6 -1.219934 4.115315 -2.390067 3.252691 -3.252691 
C 2.390067 -4.115315 1.219934 -4.6 0 -4.6 
C -1.219934 -4.6 -2.390067 -4.115315 -3.252691 -3.252691 
C -4.115315 -2.390067 -4.6 -1.219934 -4.6 0 
C -4.6 1.219934 -4.115315 2.390067 -3.252691 3.252691 
C -2.390067 4.115315 -1.219934 4.6 0 4.6 
z
" style="stroke: #2f8d69; stroke-width: 1.8"/>
     </defs>
     <g>
      <use xlink:href="#m9d0c90ad22" x="805.28181" y="90.594692" style="fill: #ffffff; stroke: #2f8d69; stroke-width: 1.8"/>
     </g>
    </g>
    <g id="text_16">
     <!-- Sync-C -->
     <g transform="translate(837.68181 96.894692) scale(0.18 -0.18)">
      <defs>
       <path id="TimesNewRomanPSMT-53" d="M 2934 4334 
L 2934 2869 
L 2819 2869 
Q 2763 3291 2617 3541 
Q 2472 3791 2203 3937 
Q 1934 4084 1647 4084 
Q 1322 4084 1109 3886 
Q 897 3688 897 3434 
Q 897 3241 1031 3081 
Q 1225 2847 1953 2456 
Q 2547 2138 2764 1967 
Q 2981 1797 3098 1565 
Q 3216 1334 3216 1081 
Q 3216 600 2842 251 
Q 2469 -97 1881 -97 
Q 1697 -97 1534 -69 
Q 1438 -53 1133 45 
Q 828 144 747 144 
Q 669 144 623 97 
Q 578 50 556 -97 
L 441 -97 
L 441 1356 
L 556 1356 
Q 638 900 775 673 
Q 913 447 1195 297 
Q 1478 147 1816 147 
Q 2206 147 2432 353 
Q 2659 559 2659 841 
Q 2659 997 2573 1156 
Q 2488 1316 2306 1453 
Q 2184 1547 1640 1851 
Q 1097 2156 867 2337 
Q 638 2519 519 2737 
Q 400 2956 400 3219 
Q 400 3675 750 4004 
Q 1100 4334 1641 4334 
Q 1978 4334 2356 4169 
Q 2531 4091 2603 4091 
Q 2684 4091 2736 4139 
Q 2788 4188 2819 4334 
L 2934 4334 
z
" transform="scale(0.015625)"/>
       <path id="TimesNewRomanPSMT-79" d="M 38 2863 
L 1372 2863 
L 1372 2747 
L 1306 2747 
Q 1166 2747 1095 2686 
Q 1025 2625 1025 2534 
Q 1025 2413 1128 2197 
L 1825 753 
L 2466 2334 
Q 2519 2463 2519 2588 
Q 2519 2644 2497 2672 
Q 2472 2706 2419 2726 
Q 2366 2747 2231 2747 
L 2231 2863 
L 3163 2863 
L 3163 2747 
Q 3047 2734 2984 2696 
Q 2922 2659 2847 2556 
Q 2819 2513 2741 2316 
L 1575 -541 
Q 1406 -956 1132 -1168 
Q 859 -1381 606 -1381 
Q 422 -1381 303 -1275 
Q 184 -1169 184 -1031 
Q 184 -900 270 -820 
Q 356 -741 506 -741 
Q 609 -741 788 -809 
Q 913 -856 944 -856 
Q 1038 -856 1148 -759 
Q 1259 -663 1372 -384 
L 1575 113 
L 547 2272 
Q 500 2369 397 2513 
Q 319 2622 269 2659 
Q 197 2709 38 2747 
L 38 2863 
z
" transform="scale(0.015625)"/>
       <path id="TimesNewRomanPSMT-6e" d="M 1034 2341 
Q 1538 2947 1994 2947 
Q 2228 2947 2397 2830 
Q 2566 2713 2666 2444 
Q 2734 2256 2734 1869 
L 2734 647 
Q 2734 375 2778 278 
Q 2813 200 2889 156 
Q 2966 113 3172 113 
L 3172 0 
L 1756 0 
L 1756 113 
L 1816 113 
Q 2016 113 2095 173 
Q 2175 234 2206 353 
Q 2219 400 2219 647 
L 2219 1819 
Q 2219 2209 2117 2386 
Q 2016 2563 1775 2563 
Q 1403 2563 1034 2156 
L 1034 647 
Q 1034 356 1069 288 
Q 1113 197 1189 155 
Q 1266 113 1500 113 
L 1500 0 
L 84 0 
L 84 113 
L 147 113 
Q 366 113 442 223 
Q 519 334 519 647 
L 519 1709 
Q 519 2225 495 2337 
Q 472 2450 423 2490 
Q 375 2531 294 2531 
Q 206 2531 84 2484 
L 38 2597 
L 900 2947 
L 1034 2947 
L 1034 2341 
z
" transform="scale(0.015625)"/>
       <path id="TimesNewRomanPSMT-63" d="M 2631 1088 
Q 2516 522 2178 217 
Q 1841 -88 1431 -88 
Q 944 -88 581 321 
Q 219 731 219 1428 
Q 219 2103 620 2525 
Q 1022 2947 1584 2947 
Q 2006 2947 2278 2723 
Q 2550 2500 2550 2259 
Q 2550 2141 2473 2067 
Q 2397 1994 2259 1994 
Q 2075 1994 1981 2113 
Q 1928 2178 1911 2362 
Q 1894 2547 1784 2644 
Q 1675 2738 1481 2738 
Q 1169 2738 978 2506 
Q 725 2200 725 1697 
Q 725 1184 976 792 
Q 1228 400 1656 400 
Q 1963 400 2206 609 
Q 2378 753 2541 1131 
L 2631 1088 
z
" transform="scale(0.015625)"/>
       <path id="TimesNewRomanPSMT-2d" d="M 259 1672 
L 1875 1672 
L 1875 1200 
L 259 1200 
L 259 1672 
z
" transform="scale(0.015625)"/>
       <path id="TimesNewRomanPSMT-43" d="M 3853 4334 
L 3950 2894 
L 3853 2894 
Q 3659 3541 3300 3825 
Q 2941 4109 2438 4109 
Q 2016 4109 1675 3895 
Q 1334 3681 1139 3212 
Q 944 2744 944 2047 
Q 944 1472 1128 1050 
Q 1313 628 1683 403 
Q 2053 178 2528 178 
Q 2941 178 3256 354 
Q 3572 531 3950 1056 
L 4047 994 
Q 3728 428 3303 165 
Q 2878 -97 2294 -97 
Q 1241 -97 663 684 
Q 231 1266 231 2053 
Q 231 2688 515 3219 
Q 800 3750 1298 4042 
Q 1797 4334 2388 4334 
Q 2847 4334 3294 4109 
Q 3425 4041 3481 4041 
Q 3566 4041 3628 4100 
Q 3709 4184 3744 4334 
L 3853 4334 
z
" transform="scale(0.015625)"/>
      </defs>
      <use xlink:href="#TimesNewRomanPSMT-53"/>
      <use xlink:href="#TimesNewRomanPSMT-79" transform="translate(55.615234 0)"/>
      <use xlink:href="#TimesNewRomanPSMT-6e" transform="translate(105.615234 0)"/>
      <use xlink:href="#TimesNewRomanPSMT-63" transform="translate(155.615234 0)"/>
      <use xlink:href="#TimesNewRomanPSMT-2d" transform="translate(200 0)"/>
      <use xlink:href="#TimesNewRomanPSMT-43" transform="translate(233.300781 0)"/>
     </g>
    </g>
   </g>
  </g>
  <g id="axes_2">
   <g id="matplotlib.axis_3">
    <g id="ytick_12">
     <g id="line2d_54">
      <defs>
       <path id="m1a312e3a1b" d="M 0 0 
L 6 0 
" style="stroke: #c97531; stroke-width: 2"/>
      </defs>
      <g>
       <use xlink:href="#m1a312e3a1b" x="911.41125" y="611.997875" style="fill: #c97531; stroke: #c97531; stroke-width: 2"/>
      </g>
     </g>
     <g id="text_17">
      <!-- 10.50 -->
      <g style="fill: #c97531" transform="translate(920.91125 617.957562) scale(0.18 -0.18)">
       <use xlink:href="#TimesNewRomanPS-BoldMT-31"/>
       <use xlink:href="#TimesNewRomanPS-BoldMT-30" transform="translate(50 0)"/>
       <use xlink:href="#TimesNewRomanPS-BoldMT-2e" transform="translate(100 0)"/>
       <use xlink:href="#TimesNewRomanPS-BoldMT-35" transform="translate(125 0)"/>
       <use xlink:href="#TimesNewRomanPS-BoldMT-30" transform="translate(175 0)"/>
      </g>
     </g>
    </g>
    <g id="ytick_13">
     <g id="line2d_55">
      <g>
       <use xlink:href="#m1a312e3a1b" x="911.41125" y="493.802675" style="fill: #c97531; stroke: #c97531; stroke-width: 2"/>
      </g>
     </g>
     <g id="text_18">
      <!-- 11.50 -->
      <g style="fill: #c97531" transform="translate(920.91125 499.762362) scale(0.18 -0.18)">
       <use xlink:href="#TimesNewRomanPS-BoldMT-31"/>
       <use xlink:href="#TimesNewRomanPS-BoldMT-31" transform="translate(44.5 0)"/>
       <use xlink:href="#TimesNewRomanPS-BoldMT-2e" transform="translate(94.5 0)"/>
       <use xlink:href="#TimesNewRomanPS-BoldMT-35" transform="translate(119.5 0)"/>
       <use xlink:href="#TimesNewRomanPS-BoldMT-30" transform="translate(169.5 0)"/>
      </g>
     </g>
    </g>
    <g id="ytick_14">
     <g id="line2d_56">
      <g>
       <use xlink:href="#m1a312e3a1b" x="911.41125" y="375.607475" style="fill: #c97531; stroke: #c97531; stroke-width: 2"/>
      </g>
     </g>
     <g id="text_19">
      <!-- 12.50 -->
      <g style="fill: #c97531" transform="translate(920.91125 381.567162) scale(0.18 -0.18)">
       <defs>
        <path id="TimesNewRomanPS-BoldMT-32" d="M 2650 0 
L 156 0 
L 156 69 
Q 1303 1434 1548 1906 
Q 1794 2378 1794 2828 
Q 1794 3156 1591 3373 
Q 1388 3591 1094 3591 
Q 613 3591 347 3109 
L 231 3150 
Q 400 3750 744 4037 
Q 1088 4325 1538 4325 
Q 1859 4325 2125 4175 
Q 2391 4025 2541 3764 
Q 2691 3503 2691 3275 
Q 2691 2859 2459 2431 
Q 2144 1853 1081 819 
L 1997 819 
Q 2334 819 2436 847 
Q 2538 875 2603 942 
Q 2669 1009 2775 1225 
L 2888 1225 
L 2650 0 
z
" transform="scale(0.015625)"/>
       </defs>
       <use xlink:href="#TimesNewRomanPS-BoldMT-31"/>
       <use xlink:href="#TimesNewRomanPS-BoldMT-32" transform="translate(50 0)"/>
       <use xlink:href="#TimesNewRomanPS-BoldMT-2e" transform="translate(100 0)"/>
       <use xlink:href="#TimesNewRomanPS-BoldMT-35" transform="translate(125 0)"/>
       <use xlink:href="#TimesNewRomanPS-BoldMT-30" transform="translate(175 0)"/>
      </g>
     </g>
    </g>
    <g id="ytick_15">
     <g id="line2d_57">
      <g>
       <use xlink:href="#m1a312e3a1b" x="911.41125" y="257.412275" style="fill: #c97531; stroke: #c97531; stroke-width: 2"/>
      </g>
     </g>
     <g id="text_20">
      <!-- 13.50 -->
      <g style="fill: #c97531" transform="translate(920.91125 263.371962) scale(0.18 -0.18)">
       <use xlink:href="#TimesNewRomanPS-BoldMT-31"/>
       <use xlink:href="#TimesNewRomanPS-BoldMT-33" transform="translate(50 0)"/>
       <use xlink:href="#TimesNewRomanPS-BoldMT-2e" transform="translate(100 0)"/>
       <use xlink:href="#TimesNewRomanPS-BoldMT-35" transform="translate(125 0)"/>
       <use xlink:href="#TimesNewRomanPS-BoldMT-30" transform="translate(175 0)"/>
      </g>
     </g>
    </g>
    <g id="ytick_16">
     <g id="line2d_58">
      <g>
       <use xlink:href="#m1a312e3a1b" x="911.41125" y="139.217075" style="fill: #c97531; stroke: #c97531; stroke-width: 2"/>
      </g>
     </g>
     <g id="text_21">
      <!-- 14.50 -->
      <g style="fill: #c97531" transform="translate(920.91125 145.176762) scale(0.18 -0.18)">
       <use xlink:href="#TimesNewRomanPS-BoldMT-31"/>
       <use xlink:href="#TimesNewRomanPS-BoldMT-34" transform="translate(50 0)"/>
       <use xlink:href="#TimesNewRomanPS-BoldMT-2e" transform="translate(100 0)"/>
       <use xlink:href="#TimesNewRomanPS-BoldMT-35" transform="translate(125 0)"/>
       <use xlink:href="#TimesNewRomanPS-BoldMT-30" transform="translate(175 0)"/>
      </g>
     </g>
    </g>
    <g id="ytick_17">
     <g id="line2d_59">
      <g>
       <use xlink:href="#m1a312e3a1b" x="911.41125" y="21.021875" style="fill: #c97531; stroke: #c97531; stroke-width: 2"/>
      </g>
     </g>
     <g id="text_22">
      <!-- 15.50 -->
      <g style="fill: #c97531" transform="translate(920.91125 26.981562) scale(0.18 -0.18)">
       <use xlink:href="#TimesNewRomanPS-BoldMT-31"/>
       <use xlink:href="#TimesNewRomanPS-BoldMT-35" transform="translate(50 0)"/>
       <use xlink:href="#TimesNewRomanPS-BoldMT-2e" transform="translate(100 0)"/>
       <use xlink:href="#TimesNewRomanPS-BoldMT-35" transform="translate(125 0)"/>
       <use xlink:href="#TimesNewRomanPS-BoldMT-30" transform="translate(175 0)"/>
      </g>
     </g>
    </g>
    <g id="text_23">
     <!-- FID ↓ -->
     <g style="fill: #c97531" transform="translate(993.979375 343.703938) rotate(-90) scale(0.22 -0.22)">
      <defs>
       <path id="TimesNewRomanPS-BoldMT-46" d="M 1759 3994 
L 1759 2253 
L 1881 2253 
Q 2163 2253 2341 2337 
Q 2519 2422 2642 2622 
Q 2766 2822 2803 3163 
L 2913 3163 
L 2913 1034 
L 2803 1034 
Q 2744 1638 2480 1830 
Q 2216 2022 1881 2022 
L 1759 2022 
L 1759 725 
Q 1759 400 1795 319 
Q 1831 238 1936 177 
Q 2041 116 2219 116 
L 2359 116 
L 2359 0 
L 144 0 
L 144 116 
L 284 116 
Q 469 116 581 181 
Q 663 225 706 331 
Q 741 406 741 725 
L 741 3513 
Q 741 3838 706 3919 
Q 672 4000 567 4061 
Q 463 4122 284 4122 
L 144 4122 
L 144 4238 
L 3719 4238 
L 3719 3022 
L 3591 3022 
Q 3547 3450 3367 3656 
Q 3188 3863 2847 3947 
Q 2659 3994 2153 3994 
L 1759 3994 
z
" transform="scale(0.015625)"/>
       <path id="TimesNewRomanPS-BoldMT-2193" d="M 478 -50 
L 478 188 
Q 850 3 997 -90 
Q 1144 -184 1444 -422 
L 1444 4184 
L 1759 4184 
L 1759 -422 
Q 2097 -100 2725 194 
L 2725 -47 
Q 2275 -450 2042 -740 
Q 1809 -1031 1663 -1341 
L 1519 -1341 
Q 1403 -1072 1167 -769 
Q 931 -466 478 -50 
z
" transform="scale(0.015625)"/>
      </defs>
      <use xlink:href="#TimesNewRomanPS-BoldMT-46"/>
      <use xlink:href="#TimesNewRomanPS-BoldMT-49" transform="translate(61.083984 0)"/>
      <use xlink:href="#TimesNewRomanPS-BoldMT-44" transform="translate(100 0)"/>
      <use xlink:href="#TimesNewRomanPS-BoldMT-20" transform="translate(172.216797 0)"/>
      <use xlink:href="#TimesNewRomanPS-BoldMT-2193" transform="translate(197.216797 0)"/>
     </g>
    </g>
   </g>
   <g id="patch_11">
    <path d="M 81.97125 611.997875 
L 81.97125 21.021875 
" style="fill: none; stroke: #b8c2cd; stroke-width: 0.8; stroke-linejoin: miter; stroke-linecap: square"/>
   </g>
   <g id="patch_12">
    <path d="M 911.41125 611.997875 
L 911.41125 21.021875 
" style="fill: none; stroke: #c97531; stroke-width: 2.5; stroke-linejoin: miter; stroke-linecap: square"/>
   </g>
   <g id="patch_13">
    <path d="M 81.97125 611.997875 
L 911.41125 611.997875 
" style="fill: none; stroke: #b8c2cd; stroke-width: 0.8; stroke-linejoin: miter; stroke-linecap: square"/>
   </g>
   <g id="line2d_60">
    <path d="M 153.894719 127.752141 
L 327.90311 124.442675 
L 559.914299 110.613837 
L 791.925488 112.268569 
" clip-path="url(#p218c0c3f61)" style="fill: none; stroke: #c97531; stroke-width: 3; stroke-linecap: round"/>
   </g>
   <g id="line2d_61">
    <defs>
     <path id="mab73ce6475" d="M 0 5.1 
C 1.352536 5.1 2.649857 4.562632 3.606245 3.606245 
C 4.562632 2.649857 5.1 1.352536 5.1 0 
C 5.1 -1.352536 4.562632 -2.649857 3.606245 -3.606245 
C 2.649857 -4.562632 1.352536 -5.1 0 -5.1 
C -1.352536 -5.1 -2.649857 -4.562632 -3.606245 -3.606245 
C -4.562632 -2.649857 -5.1 -1.352536 -5.1 0 
C -5.1 1.352536 -4.562632 2.649857 -3.606245 3.606245 
C -2.649857 4.562632 -1.352536 5.1 0 5.1 
z
" style="stroke: #c97531; stroke-width: 1.8"/>
    </defs>
    <g clip-path="url(#p218c0c3f61)">
     <use xlink:href="#mab73ce6475" x="327.90311" y="124.442675" style="fill: #ffffff; stroke: #c97531; stroke-width: 1.8"/>
     <use xlink:href="#mab73ce6475" x="559.914299" y="110.613837" style="fill: #ffffff; stroke: #c97531; stroke-width: 1.8"/>
     <use xlink:href="#mab73ce6475" x="791.925488" y="112.268569" style="fill: #ffffff; stroke: #c97531; stroke-width: 1.8"/>
    </g>
   </g>
   <g id="line2d_62">
    <defs>
     <path id="ma245f9ac47" d="M 0 -6.75 
L -6.75 6.75 
L 6.75 6.75 
z
" style="stroke: #c97531; stroke-width: 1.7; stroke-linejoin: miter"/>
    </defs>
    <g clip-path="url(#p218c0c3f61)">
     <use xlink:href="#ma245f9ac47" x="153.894719" y="127.752141" style="fill: #ffd46a; stroke: #c97531; stroke-width: 1.7; stroke-linejoin: miter"/>
    </g>
   </g>
  </g>
  <g id="axes_3">
   <g id="matplotlib.axis_4">
    <g id="ytick_18">
     <g id="line2d_63">
      <defs>
       <path id="m977a931cfe" d="M 0 0 
L 6 0 
" style="stroke: #274b6c; stroke-width: 2"/>
      </defs>
      <g>
       <use xlink:href="#m977a931cfe" x="1010.94405" y="611.997875" style="fill: #274b6c; stroke: #274b6c; stroke-width: 2"/>
      </g>
     </g>
     <g id="text_24">
      <!-- 213.0 -->
      <g style="fill: #274b6c" transform="translate(1020.44405 617.957562) scale(0.18 -0.18)">
       <use xlink:href="#TimesNewRomanPS-BoldMT-32"/>
       <use xlink:href="#TimesNewRomanPS-BoldMT-31" transform="translate(50 0)"/>
       <use xlink:href="#TimesNewRomanPS-BoldMT-33" transform="translate(100 0)"/>
       <use xlink:href="#TimesNewRomanPS-BoldMT-2e" transform="translate(150 0)"/>
       <use xlink:href="#TimesNewRomanPS-BoldMT-30" transform="translate(175 0)"/>
      </g>
     </g>
    </g>
    <g id="ytick_19">
     <g id="line2d_64">
      <g>
       <use xlink:href="#m977a931cfe" x="1010.94405" y="493.802675" style="fill: #274b6c; stroke: #274b6c; stroke-width: 2"/>
      </g>
     </g>
     <g id="text_25">
      <!-- 215.5 -->
      <g style="fill: #274b6c" transform="translate(1020.44405 499.762362) scale(0.18 -0.18)">
       <use xlink:href="#TimesNewRomanPS-BoldMT-32"/>
       <use xlink:href="#TimesNewRomanPS-BoldMT-31" transform="translate(50 0)"/>
       <use xlink:href="#TimesNewRomanPS-BoldMT-35" transform="translate(100 0)"/>
       <use xlink:href="#TimesNewRomanPS-BoldMT-2e" transform="translate(150 0)"/>
       <use xlink:href="#TimesNewRomanPS-BoldMT-35" transform="translate(175 0)"/>
      </g>
     </g>
    </g>
    <g id="ytick_20">
     <g id="line2d_65">
      <g>
       <use xlink:href="#m977a931cfe" x="1010.94405" y="375.607475" style="fill: #274b6c; stroke: #274b6c; stroke-width: 2"/>
      </g>
     </g>
     <g id="text_26">
      <!-- 218.0 -->
      <g style="fill: #274b6c" transform="translate(1020.44405 381.567162) scale(0.18 -0.18)">
       <defs>
        <path id="TimesNewRomanPS-BoldMT-38" d="M 2181 2394 
Q 2628 2066 2801 1783 
Q 2975 1500 2975 1134 
Q 2975 622 2589 267 
Q 2203 -88 1541 -88 
Q 913 -88 569 221 
Q 225 531 225 978 
Q 225 1319 423 1575 
Q 622 1831 1084 2044 
Q 581 2428 439 2672 
Q 297 2916 297 3238 
Q 297 3663 658 3986 
Q 1019 4309 1647 4309 
Q 2253 4309 2579 4023 
Q 2906 3738 2906 3338 
Q 2906 3038 2729 2808 
Q 2553 2578 2181 2394 
z
M 1944 2553 
Q 2059 2709 2115 2903 
Q 2172 3097 2172 3328 
Q 2172 3734 1997 3950 
Q 1866 4116 1634 4116 
Q 1425 4116 1278 3964 
Q 1131 3813 1131 3588 
Q 1131 3359 1295 3114 
Q 1459 2869 1944 2553 
z
M 1319 1894 
Q 1222 1806 1181 1734 
Q 1119 1625 1069 1415 
Q 1019 1206 1019 978 
Q 1019 684 1094 486 
Q 1169 288 1308 200 
Q 1447 113 1594 113 
Q 1822 113 1978 280 
Q 2134 447 2134 738 
Q 2134 1344 1319 1894 
z
" transform="scale(0.015625)"/>
       </defs>
       <use xlink:href="#TimesNewRomanPS-BoldMT-32"/>
       <use xlink:href="#TimesNewRomanPS-BoldMT-31" transform="translate(50 0)"/>
       <use xlink:href="#TimesNewRomanPS-BoldMT-38" transform="translate(100 0)"/>
       <use xlink:href="#TimesNewRomanPS-BoldMT-2e" transform="translate(150 0)"/>
       <use xlink:href="#TimesNewRomanPS-BoldMT-30" transform="translate(175 0)"/>
      </g>
     </g>
    </g>
    <g id="ytick_21">
     <g id="line2d_66">
      <g>
       <use xlink:href="#m977a931cfe" x="1010.94405" y="257.412275" style="fill: #274b6c; stroke: #274b6c; stroke-width: 2"/>
      </g>
     </g>
     <g id="text_27">
      <!-- 220.5 -->
      <g style="fill: #274b6c" transform="translate(1020.44405 263.371962) scale(0.18 -0.18)">
       <use xlink:href="#TimesNewRomanPS-BoldMT-32"/>
       <use xlink:href="#TimesNewRomanPS-BoldMT-32" transform="translate(50 0)"/>
       <use xlink:href="#TimesNewRomanPS-BoldMT-30" transform="translate(100 0)"/>
       <use xlink:href="#TimesNewRomanPS-BoldMT-2e" transform="translate(150 0)"/>
       <use xlink:href="#TimesNewRomanPS-BoldMT-35" transform="translate(175 0)"/>
      </g>
     </g>
    </g>
    <g id="ytick_22">
     <g id="line2d_67">
      <g>
       <use xlink:href="#m977a931cfe" x="1010.94405" y="139.217075" style="fill: #274b6c; stroke: #274b6c; stroke-width: 2"/>
      </g>
     </g>
     <g id="text_28">
      <!-- 223.0 -->
      <g style="fill: #274b6c" transform="translate(1020.44405 145.176762) scale(0.18 -0.18)">
       <use xlink:href="#TimesNewRomanPS-BoldMT-32"/>
       <use xlink:href="#TimesNewRomanPS-BoldMT-32" transform="translate(50 0)"/>
       <use xlink:href="#TimesNewRomanPS-BoldMT-33" transform="translate(100 0)"/>
       <use xlink:href="#TimesNewRomanPS-BoldMT-2e" transform="translate(150 0)"/>
       <use xlink:href="#TimesNewRomanPS-BoldMT-30" transform="translate(175 0)"/>
      </g>
     </g>
    </g>
    <g id="ytick_23">
     <g id="line2d_68">
      <g>
       <use xlink:href="#m977a931cfe" x="1010.94405" y="21.021875" style="fill: #274b6c; stroke: #274b6c; stroke-width: 2"/>
      </g>
     </g>
     <g id="text_29">
      <!-- 225.5 -->
      <g style="fill: #274b6c" transform="translate(1020.44405 26.981562) scale(0.18 -0.18)">
       <use xlink:href="#TimesNewRomanPS-BoldMT-32"/>
       <use xlink:href="#TimesNewRomanPS-BoldMT-32" transform="translate(50 0)"/>
       <use xlink:href="#TimesNewRomanPS-BoldMT-35" transform="translate(100 0)"/>
       <use xlink:href="#TimesNewRomanPS-BoldMT-2e" transform="translate(150 0)"/>
       <use xlink:href="#TimesNewRomanPS-BoldMT-35" transform="translate(175 0)"/>
      </g>
     </g>
    </g>
    <g id="text_30">
     <!-- FVD ↓ -->
     <g style="fill: #274b6c" transform="translate(1093.512175 347.366594) rotate(-90) scale(0.22 -0.22)">
      <use xlink:href="#TimesNewRomanPS-BoldMT-46"/>
      <use xlink:href="#TimesNewRomanPS-BoldMT-56" transform="translate(61.083984 0)"/>
      <use xlink:href="#TimesNewRomanPS-BoldMT-44" transform="translate(133.300781 0)"/>
      <use xlink:href="#TimesNewRomanPS-BoldMT-20" transform="translate(205.517578 0)"/>
      <use xlink:href="#TimesNewRomanPS-BoldMT-2193" transform="translate(230.517578 0)"/>
     </g>
    </g>
   </g>
   <g id="patch_14">
    <path d="M 81.97125 611.997875 
L 81.97125 21.021875 
" style="fill: none; stroke: #b8c2cd; stroke-width: 0.8; stroke-linejoin: miter; stroke-linecap: square"/>
   </g>
   <g id="patch_15">
    <path d="M 1010.94405 611.997875 
L 1010.94405 21.021875 
" style="fill: none; stroke: #274b6c; stroke-width: 2.5; stroke-linejoin: miter; stroke-linecap: square"/>
   </g>
   <g id="patch_16">
    <path d="M 81.97125 611.997875 
L 911.41125 611.997875 
" style="fill: none; stroke: #b8c2cd; stroke-width: 0.8; stroke-linejoin: miter; stroke-linecap: square"/>
   </g>
   <g id="line2d_69">
    <path d="M 163.175166 287.197465 
L 337.183558 306.392366 
L 569.194747 317.597271 
L 801.205935 307.76343 
" clip-path="url(#p218c0c3f61)" style="fill: none; stroke: #274b6c; stroke-width: 3; stroke-linecap: round"/>
   </g>
   <g id="line2d_70">
    <defs>
     <path id="m385fd98f21" d="M 0 5.1 
C 1.352536 5.1 2.649857 4.562632 3.606245 3.606245 
C 4.562632 2.649857 5.1 1.352536 5.1 0 
C 5.1 -1.352536 4.562632 -2.649857 3.606245 -3.606245 
C 2.649857 -4.562632 1.352536 -5.1 0 -5.1 
C -1.352536 -5.1 -2.649857 -4.562632 -3.606245 -3.606245 
C -4.562632 -2.649857 -5.1 -1.352536 -5.1 0 
C -5.1 1.352536 -4.562632 2.649857 -3.606245 3.606245 
C -2.649857 4.562632 -1.352536 5.1 0 5.1 
z
" style="stroke: #274b6c; stroke-width: 1.8"/>
    </defs>
    <g clip-path="url(#p218c0c3f61)">
     <use xlink:href="#m385fd98f21" x="163.175166" y="287.197465" style="fill: #ffffff; stroke: #274b6c; stroke-width: 1.8"/>
     <use xlink:href="#m385fd98f21" x="337.183558" y="306.392366" style="fill: #ffffff; stroke: #274b6c; stroke-width: 1.8"/>
     <use xlink:href="#m385fd98f21" x="801.205935" y="307.76343" style="fill: #ffffff; stroke: #274b6c; stroke-width: 1.8"/>
    </g>
   </g>
   <g id="line2d_71">
    <defs>
     <path id="m636d58cb04" d="M 0 -6.75 
L -6.75 6.75 
L 6.75 6.75 
z
" style="stroke: #274b6c; stroke-width: 1.7; stroke-linejoin: miter"/>
    </defs>
    <g clip-path="url(#p218c0c3f61)">
     <use xlink:href="#m636d58cb04" x="569.194747" y="317.597271" style="fill: #ffd46a; stroke: #274b6c; stroke-width: 1.7; stroke-linejoin: miter"/>
    </g>
   </g>
  </g>
  <g id="axes_4">
   <g id="matplotlib.axis_5">
    <g id="ytick_24">
     <g id="line2d_72">
      <defs>
       <path id="m4136546858" d="M 0 0 
L 6 0 
" style="stroke: #2f8d69; stroke-width: 2"/>
      </defs>
      <g>
       <use xlink:href="#m4136546858" x="1110.47685" y="611.997875" style="fill: #2f8d69; stroke: #2f8d69; stroke-width: 2"/>
      </g>
     </g>
     <g id="text_31">
      <!-- 8.00 -->
      <g style="fill: #2f8d69" transform="translate(1119.97685 617.957563) scale(0.18 -0.18)">
       <use xlink:href="#TimesNewRomanPS-BoldMT-38"/>
       <use xlink:href="#TimesNewRomanPS-BoldMT-2e" transform="translate(50 0)"/>
       <use xlink:href="#TimesNewRomanPS-BoldMT-30" transform="translate(75 0)"/>
       <use xlink:href="#TimesNewRomanPS-BoldMT-30" transform="translate(125 0)"/>
      </g>
     </g>
    </g>
    <g id="ytick_25">
     <g id="line2d_73">
      <g>
       <use xlink:href="#m4136546858" x="1110.47685" y="493.802675" style="fill: #2f8d69; stroke: #2f8d69; stroke-width: 2"/>
      </g>
     </g>
     <g id="text_32">
      <!-- 8.30 -->
      <g style="fill: #2f8d69" transform="translate(1119.97685 499.762363) scale(0.18 -0.18)">
       <use xlink:href="#TimesNewRomanPS-BoldMT-38"/>
       <use xlink:href="#TimesNewRomanPS-BoldMT-2e" transform="translate(50 0)"/>
       <use xlink:href="#TimesNewRomanPS-BoldMT-33" transform="translate(75 0)"/>
       <use xlink:href="#TimesNewRomanPS-BoldMT-30" transform="translate(125 0)"/>
      </g>
     </g>
    </g>
    <g id="ytick_26">
     <g id="line2d_74">
      <g>
       <use xlink:href="#m4136546858" x="1110.47685" y="375.607475" style="fill: #2f8d69; stroke: #2f8d69; stroke-width: 2"/>
      </g>
     </g>
     <g id="text_33">
      <!-- 8.60 -->
      <g style="fill: #2f8d69" transform="translate(1119.97685 381.567163) scale(0.18 -0.18)">
       <use xlink:href="#TimesNewRomanPS-BoldMT-38"/>
       <use xlink:href="#TimesNewRomanPS-BoldMT-2e" transform="translate(50 0)"/>
       <use xlink:href="#TimesNewRomanPS-BoldMT-36" transform="translate(75 0)"/>
       <use xlink:href="#TimesNewRomanPS-BoldMT-30" transform="translate(125 0)"/>
      </g>
     </g>
    </g>
    <g id="ytick_27">
     <g id="line2d_75">
      <g>
       <use xlink:href="#m4136546858" x="1110.47685" y="257.412275" style="fill: #2f8d69; stroke: #2f8d69; stroke-width: 2"/>
      </g>
     </g>
     <g id="text_34">
      <!-- 8.90 -->
      <g style="fill: #2f8d69" transform="translate(1119.97685 263.371962) scale(0.18 -0.18)">
       <defs>
        <path id="TimesNewRomanPS-BoldMT-39" d="M 197 -88 
L 197 0 
Q 716 119 1077 350 
Q 1438 581 1648 922 
Q 1859 1263 1944 1706 
Q 1750 1606 1614 1567 
Q 1478 1528 1328 1528 
Q 847 1528 526 1875 
Q 206 2222 206 2825 
Q 206 3244 379 3592 
Q 553 3941 875 4133 
Q 1197 4325 1544 4325 
Q 1916 4325 2247 4112 
Q 2578 3900 2775 3497 
Q 2972 3094 2972 2578 
Q 2972 1909 2651 1296 
Q 2331 684 1697 314 
Q 1063 -56 197 -88 
z
M 1991 1969 
Q 2022 2319 2022 2584 
Q 2022 3153 1891 3644 
Q 1816 3916 1669 4044 
Q 1591 4113 1466 4113 
Q 1309 4113 1222 3978 
Q 1100 3794 1100 3275 
Q 1100 2409 1306 2081 
Q 1441 1869 1669 1869 
Q 1791 1869 1991 1969 
z
" transform="scale(0.015625)"/>
       </defs>
       <use xlink:href="#TimesNewRomanPS-BoldMT-38"/>
       <use xlink:href="#TimesNewRomanPS-BoldMT-2e" transform="translate(50 0)"/>
       <use xlink:href="#TimesNewRomanPS-BoldMT-39" transform="translate(75 0)"/>
       <use xlink:href="#TimesNewRomanPS-BoldMT-30" transform="translate(125 0)"/>
      </g>
     </g>
    </g>
    <g id="ytick_28">
     <g id="line2d_76">
      <g>
       <use xlink:href="#m4136546858" x="1110.47685" y="139.217075" style="fill: #2f8d69; stroke: #2f8d69; stroke-width: 2"/>
      </g>
     </g>
     <g id="text_35">
      <!-- 9.20 -->
      <g style="fill: #2f8d69" transform="translate(1119.97685 145.176763) scale(0.18 -0.18)">
       <use xlink:href="#TimesNewRomanPS-BoldMT-39"/>
       <use xlink:href="#TimesNewRomanPS-BoldMT-2e" transform="translate(50 0)"/>
       <use xlink:href="#TimesNewRomanPS-BoldMT-32" transform="translate(75 0)"/>
       <use xlink:href="#TimesNewRomanPS-BoldMT-30" transform="translate(125 0)"/>
      </g>
     </g>
    </g>
    <g id="ytick_29">
     <g id="line2d_77">
      <g>
       <use xlink:href="#m4136546858" x="1110.47685" y="21.021875" style="fill: #2f8d69; stroke: #2f8d69; stroke-width: 2"/>
      </g>
     </g>
     <g id="text_36">
      <!-- 9.50 -->
      <g style="fill: #2f8d69" transform="translate(1119.97685 26.981563) scale(0.18 -0.18)">
       <use xlink:href="#TimesNewRomanPS-BoldMT-39"/>
       <use xlink:href="#TimesNewRomanPS-BoldMT-2e" transform="translate(50 0)"/>
       <use xlink:href="#TimesNewRomanPS-BoldMT-35" transform="translate(75 0)"/>
       <use xlink:href="#TimesNewRomanPS-BoldMT-30" transform="translate(125 0)"/>
      </g>
     </g>
    </g>
    <g id="text_37">
     <!-- Sync-C ↑ -->
     <g style="fill: #2f8d69" transform="translate(1184.374975 358.983625) rotate(-90) scale(0.22 -0.22)">
      <defs>
       <path id="TimesNewRomanPS-BoldMT-53" d="M 3006 4334 
L 3041 2922 
L 2913 2922 
Q 2822 3453 2467 3776 
Q 2113 4100 1700 4100 
Q 1381 4100 1195 3929 
Q 1009 3759 1009 3538 
Q 1009 3397 1075 3288 
Q 1166 3141 1366 2997 
Q 1513 2894 2044 2631 
Q 2788 2266 3047 1941 
Q 3303 1616 3303 1197 
Q 3303 666 2889 283 
Q 2475 -100 1838 -100 
Q 1638 -100 1459 -59 
Q 1281 -19 1013 94 
Q 863 156 766 156 
Q 684 156 593 93 
Q 503 31 447 -97 
L 331 -97 
L 331 1503 
L 447 1503 
Q 584 828 976 473 
Q 1369 119 1822 119 
Q 2172 119 2380 309 
Q 2588 500 2588 753 
Q 2588 903 2508 1043 
Q 2428 1184 2265 1311 
Q 2103 1438 1691 1641 
Q 1113 1925 859 2125 
Q 606 2325 470 2572 
Q 334 2819 334 3116 
Q 334 3622 706 3978 
Q 1078 4334 1644 4334 
Q 1850 4334 2044 4284 
Q 2191 4247 2402 4145 
Q 2613 4044 2697 4044 
Q 2778 4044 2825 4094 
Q 2872 4144 2913 4334 
L 3006 4334 
z
" transform="scale(0.015625)"/>
       <path id="TimesNewRomanPS-BoldMT-79" d="M 1556 -119 
L 613 2047 
Q 400 2538 298 2650 
Q 197 2763 53 2806 
L 53 2922 
L 1606 2922 
L 1606 2806 
Q 1453 2800 1390 2747 
Q 1328 2694 1328 2619 
Q 1328 2500 1484 2150 
L 1984 1006 
L 2325 1891 
Q 2509 2363 2509 2547 
Q 2509 2663 2432 2731 
Q 2356 2800 2163 2806 
L 2163 2922 
L 3141 2922 
L 3141 2806 
Q 2997 2791 2906 2695 
Q 2816 2600 2603 2047 
L 1769 -119 
Q 1453 -931 1300 -1119 
Q 1084 -1381 759 -1381 
Q 500 -1381 339 -1232 
Q 178 -1084 178 -875 
Q 178 -694 289 -575 
Q 400 -456 563 -456 
Q 719 -456 814 -556 
Q 909 -656 913 -866 
Q 916 -984 941 -1019 
Q 966 -1053 1013 -1053 
Q 1088 -1053 1172 -963 
Q 1297 -831 1466 -363 
L 1556 -119 
z
" transform="scale(0.015625)"/>
       <path id="TimesNewRomanPS-BoldMT-2191" d="M 478 2894 
Q 931 3309 1167 3612 
Q 1403 3916 1519 4184 
L 1663 4184 
Q 1809 3875 2042 3584 
Q 2275 3294 2725 2891 
L 2725 2650 
Q 2097 2944 1759 3266 
L 1759 -1341 
L 1444 -1341 
L 1444 3266 
Q 1144 3028 995 2934 
Q 847 2841 478 2656 
L 478 2894 
z
" transform="scale(0.015625)"/>
      </defs>
      <use xlink:href="#TimesNewRomanPS-BoldMT-53"/>
      <use xlink:href="#TimesNewRomanPS-BoldMT-79" transform="translate(55.615234 0)"/>
      <use xlink:href="#TimesNewRomanPS-BoldMT-6e" transform="translate(105.615234 0)"/>
      <use xlink:href="#TimesNewRomanPS-BoldMT-63" transform="translate(161.230469 0)"/>
      <use xlink:href="#TimesNewRomanPS-BoldMT-2d" transform="translate(205.615234 0)"/>
      <use xlink:href="#TimesNewRomanPS-BoldMT-43" transform="translate(238.916016 0)"/>
      <use xlink:href="#TimesNewRomanPS-BoldMT-20" transform="translate(311.132812 0)"/>
      <use xlink:href="#TimesNewRomanPS-BoldMT-2191" transform="translate(336.132812 0)"/>
     </g>
    </g>
   </g>
   <g id="patch_17">
    <path d="M 81.97125 611.997875 
L 81.97125 21.021875 
" style="fill: none; stroke: #b8c2cd; stroke-width: 0.8; stroke-linejoin: miter; stroke-linecap: square"/>
   </g>
   <g id="patch_18">
    <path d="M 1110.47685 611.997875 
L 1110.47685 21.021875 
" style="fill: none; stroke: #2f8d69; stroke-width: 2.5; stroke-linejoin: miter; stroke-linecap: square"/>
   </g>
   <g id="patch_19">
    <path d="M 81.97125 611.997875 
L 911.41125 611.997875 
" style="fill: none; stroke: #b8c2cd; stroke-width: 0.8; stroke-linejoin: miter; stroke-linecap: square"/>
   </g>
   <g id="line2d_78">
    <path d="M 172.455614 480.013235 
L 346.464005 484.347059 
L 578.475194 486.316979 
L 810.486383 507.198131 
" clip-path="url(#p218c0c3f61)" style="fill: none; stroke: #2f8d69; stroke-width: 3; stroke-linecap: round"/>
   </g>
   <g id="line2d_79">
    <defs>
     <path id="m408bc837de" d="M 0 5.1 
C 1.352536 5.1 2.649857 4.562632 3.606245 3.606245 
C 4.562632 2.649857 5.1 1.352536 5.1 0 
C 5.1 -1.352536 4.562632 -2.649857 3.606245 -3.606245 
C 2.649857 -4.562632 1.352536 -5.1 0 -5.1 
C -1.352536 -5.1 -2.649857 -4.562632 -3.606245 -3.606245 
C -4.562632 -2.649857 -5.1 -1.352536 -5.1 0 
C -5.1 1.352536 -4.562632 2.649857 -3.606245 3.606245 
C -2.649857 4.562632 -1.352536 5.1 0 5.1 
z
" style="stroke: #2f8d69; stroke-width: 1.8"/>
    </defs>
    <g clip-path="url(#p218c0c3f61)">
     <use xlink:href="#m408bc837de" x="346.464005" y="484.347059" style="fill: #ffffff; stroke: #2f8d69; stroke-width: 1.8"/>
     <use xlink:href="#m408bc837de" x="578.475194" y="486.316979" style="fill: #ffffff; stroke: #2f8d69; stroke-width: 1.8"/>
     <use xlink:href="#m408bc837de" x="810.486383" y="507.198131" style="fill: #ffffff; stroke: #2f8d69; stroke-width: 1.8"/>
    </g>
   </g>
   <g id="line2d_80">
    <defs>
     <path id="m6f9e47648a" d="M 0 -6.75 
L -6.75 6.75 
L 6.75 6.75 
z
" style="stroke: #2f8d69; stroke-width: 1.7; stroke-linejoin: miter"/>
    </defs>
    <g clip-path="url(#p218c0c3f61)">
     <use xlink:href="#m6f9e47648a" x="172.455614" y="480.013235" style="fill: #ffd46a; stroke: #2f8d69; stroke-width: 1.7; stroke-linejoin: miter"/>
    </g>
   </g>
  </g>
 </g>
 <defs>
  <clipPath id="p218c0c3f61">
   <rect x="81.97125" y="21.021875" width="829.44" height="590.976"/>
  </clipPath>
 </defs>
</svg>
